<?xml version="1.0" standalone="no"?>
<!DOCTYPE svg PUBLIC "-//W3C//DTD SVG 1.1//EN" "http://www.w3.org/Graphics/SVG/1.1/DTD/svg11.dtd" >
<svg xmlns="http://www.w3.org/2000/svg">
<metadata>
This is a custom SVG webfont generated by Font Squirrel.
Copyright   : Copyright c 2008 by Marcelo Magalhaes All rights reserved
Designer    : Marcelo Magalhaes
Foundry     : Marcelo Magalhaes
</metadata>
<defs>
<font id="Folksolid" horiz-adv-x="966" >
<font-face units-per-em="2048" ascent="1485" descent="-563" />
<missing-glyph horiz-adv-x="368" />
<glyph unicode=" "  horiz-adv-x="368" />
<glyph unicode="&#x09;" horiz-adv-x="368" />
<glyph unicode="&#xa0;" horiz-adv-x="368" />
<glyph unicode="!" horiz-adv-x="393" d="M63 889q-1 107 -1 195q0 263 10 354h6q12 2 56 6t70 6q17 1 39 1h23q37 -1 64 -9q-7 -353 -7 -612q0 -296 9 -472q-37 -4 -264 -10h-2q1 38 0 110q0 146 -3 431zM72 47q0 27 6 98.5t6 96.5v2q29 12 71 13h14q37 0 84 -4q56 -5 81 -5q-6 -227 -6 -246h-15q-16 0 -39.5 1 t-37.5 1h-5l-153 -2q-6 18 -6 45z" />
<glyph unicode="&#x22;" horiz-adv-x="761" d="M70 940v2q-1 128 -2 225q0 195 6 271v4h2q2 0 17.5 2t33.5 4t40.5 4t44 3t40 1t31 -3t14.5 -7q4 -180 4 -504q2 0 -44 0t-104 -1t-83 -1zM465 940v2q-1 128 -1 225q0 195 5 271v4h2q2 0 17.5 2t34 4t41 4t44 3t40 1t30.5 -3t14 -7q4 -180 4 -504q2 0 -44 0t-104 -1 t-83 -1z" />
<glyph unicode="#" horiz-adv-x="1343" d="M37 537q22 -11 146 -12q35 0 79 1q6 6 12 28l25 86q18 65 47 144h-16q-23 0 -43.5 -1t-82.5 -1h-141l-4 222q6 -2 20.5 -4.5t82.5 -6.5q34 -2 81.5 -2t108.5 2h64q0 2 1 2t1 2q14 33 50 144.5t46 163.5v2q6 -2 26.5 -3t83 -2.5t134.5 -5.5q2 -8 -90 -301q37 0 114 1 q26 0 49 1q46 0 80 -2q37 61 103 314h2h2q29 -5 80 -5q17 0 36.5 0.5t36.5 0.5q51 0 78 -5q0 -12 2 -13t-2 -16l-6 -24q-2 -8 -10 -36l-15 -52q-7 -25 -23 -73l-30 -97q23 0 66 -1t63 -1v-8l15 -188l-217 -7l-86 -258h49q39 0 98 -2t119 -6q6 -20 8 -37.5t2 -61.5t4 -91v-4 q-39 -6 -81 -6.5t-100 0.5q-12 0 -26 1q-55 0 -143 -4h-2h-4q-2 -2 -21.5 -62t-47 -133t-52.5 -116l-2 -2h-4h-234q16 63 54.5 168.5t50.5 151.5h-2h-238q-18 -55 -27 -78l-26 -61l-43 -107q-14 -47 -29 -72q-4 -4 -16 -4q-33 2 -87.5 2t-131.5 -2q18 90 104 317 q-18 0 -65 -3q-28 -2 -48 -1h-22q-2 33 -3 70t-2 83t-1 71zM506 526l256 2v2q2 2 2 5q10 45 41 126.5t41 122.5v2h-2h-2q-176 4 -244 5h-4v-3q-57 -176 -88 -262z" />
<glyph unicode="$" horiz-adv-x="1099" d="M113 1128q45 111 145 170q65 38 142 39q43 0 89 -12v2q4 14 3.5 52t3.5 61v2q8 0 58 7q32 5 54 5q13 0 23 -2q14 -10 15 -29.5t-4 -38t1 -41.5v-2q32 2 64 2q87 0 178 -12q117 -53 116 -309q2 -18 -6 -30.5t-26 -10.5q-19 4 -46 4q-34 0 -80 -6q-36 -4 -66 -5 q-39 0 -66 8q-49 13 -68 75h-2q6 -178 8 -217v-4h2q68 0 125 -9q53 -8 93 -24.5t66 -33.5t44 -49t27.5 -55.5t14.5 -69.5t6 -73.5t1 -84t2 -87.5q-18 -119 -95 -182q-58 -48 -154 -48q-31 0 -66 5q-20 6 -62 -2q-2 0 -6 -4q-8 -14 -1 -60q2 -12 2 -21q0 -27 -15 -38l-4 -4 h-2q-2 0 -57.5 2t-67.5 2h-4q-2 0 -2 2t-2 4q-8 14 -11.5 32.5t-4.5 41t-3 33.5q0 2 -4 2q-4 2 -6 2q-23 5 -90 4h-49h-18q-93 0 -111 20q-61 39 -81 130q-8 38 -8 76q0 51 15 102q18 6 40.5 10t41 6t50.5 1t48 -2t54 -4t53 -5q18 -10 42.5 -42t39.5 -36q4 54 3 96 q0 52 -6 86q-10 2 -118 19q-180 25 -250 189q-37 88 -37 184q0 85 29 177z" />
<glyph unicode="%" horiz-adv-x="1249" d="M41 1051l4 51q0 6 5 44t7 51t9.5 41t18.5 47.5t26 35.5q61 76 151 78h6q92 0 150 -60q59 -61 76 -153q9 -61 8 -103v-16q1 -13 0 -27q0 -70 -18 -139q-22 -82 -80 -143q-55 -58 -135 -58h-11q-51 2 -98 27q-82 53 -101 150l-7 58q-5 42 -9 62v2zM203 1131l10 -150 q0 -14 2 -38.5t2 -39.5q0 -25 21.5 -36t44.5 -3q8 2 15 6.5t11 10.5t7 10t6.5 14t4.5 12.5t3 14.5t2 14q0 4 1 11.5t1 11.5q2 34 2 65q0 102 -21 178q0 2 -2 5.5t-4 5.5q-17 23 -38 22q-11 0 -23 -6q-18 -6 -33 -27q-13 -21 -13 -59q0 -10 1 -20v-2zM229 -2q-5 0 -4 9 q0 10 5 31q11 40 32 93l21 53q35 111 65 181q20 74 193 532q16 43 42 124l35 114l9 20l18 53l24 69q13 38 26.5 85t23.5 90q17 -4 63 -4q31 0 75 2q20 1 37 1q77 0 95 -15q-6 -12 -12 -37l-90 -297q-6 -20 -36 -101t-44 -124l-65 -191l-87 -254q-29 -82 -45 -123l-116 -295 q-4 -8 -7 -10q-12 -2 -33.5 -2t-84 -1t-138.5 -3h-2zM743 401l5 52q0 6 5 44t7 51t9 40.5t18.5 47t25.5 36.5q61 76 152 78h6q92 0 149 -60q59 -61 76 -153q9 -61 9 -103q0 -8 -1 -16q1 -13 1 -27q0 -70 -18 -139q-22 -82 -80 -143q-55 -58 -136 -58h-10q-51 2 -99 27 q-82 53 -100 149l-7 59q-5 42 -10 62v2zM905 481l10 -149q2 -12 2.5 -39t2.5 -39q0 -25 21 -36q12 -7 25 -6q9 0 19 3q8 2 15.5 6t11.5 10.5t7 10.5t6 14t4 12t3 14.5t2 14.5q0 4 1 11t1 11q2 34 2 66q0 102 -20 178q-2 2 -4 5t-2 5q-17 23 -39 23q-11 0 -23 -6 q-18 -6 -32 -27q-13 -21 -14 -59q0 -10 1 -21v-2z" />
<glyph unicode="&#x26;" horiz-adv-x="1148" d="M57 332q-3 23 -2 46q0 85 36 160q46 95 149 144v2q-86 100 -102 243q-3 25 -2 48q0 112 60 202q71 106 216 105h6h17q112 0 215 -49q112 -53 153 -152q15 -56 15 -110q0 -74 -27 -147q-47 -126 -168 -210l-2 -2l45 -45l79 -80l56 -55q43 88 59 213v2q0 6 6 6t88 -4t99 -6 q2 -14 1 -30q0 -127 -102 -367l127 -127q18 -10 29 -47q5 -18 5 -33.5t-5 -28.5q-53 -10 -99 -10q-58 0 -104 16q-8 6 -63 76q-80 -55 -201 -80q-83 -17 -165 -17q-38 0 -76 4q-120 11 -215 79.5t-119 185.5q-9 41 -9 68zM269 431q-14 -32 -14 -63q0 -60 52 -118 q39 -39 84 -49l25 -4q25 -4 56 -7q21 -1 45 -1h25q38 1 77.5 12.5t68.5 34.5q0 2 -1 2t-1 2l-144 160l-114 130l-2 2q-115 -8 -157 -101zM311 985q-5 -22 -5 -43q0 -32 11 -63q31 -55 90 -85q43 -22 87 -22q15 0 30 2q49 10 87 42t48 77q2 13 2 25q0 68 -56 130 q-67 73 -148 85h-2h-9q-60 0 -98 -56q-25 -37 -37 -92z" />
<glyph unicode="'" horiz-adv-x="358" d="M66 940v2q-1 128 -2 225q0 195 6 271v4h2q2 0 17 2t33.5 4t41 4t44 3t40 1t31 -3t14.5 -7q4 -180 4 -504q2 0 -44 0t-104 -1t-83 -1z" />
<glyph unicode="(" horiz-adv-x="643" d="M49 416q12 434 12 444v49q0 43 1 93.5t2.5 93.5t12.5 90t34 86q92 180 307 184q16 0 149 -12l2 -2q3 -23 3 -86t-3 -166q-68 -18 -123 -60.5t-65 -103.5q0 -4 -5 -23.5t-7 -29.5q-16 -82 -25 -195q0 -23 -1 -109v-34q0 -65 3 -111q4 -57 19 -108q29 -63 89 -106.5 t121 -45.5h3v-10q-2 -35 -3.5 -118t-3.5 -118q-14 -18 -86 -18h-34q-66 2 -134 23q-59 20 -112 61q-45 35 -78 80q-2 2 -8 14q-64 113 -70 238z" />
<glyph unicode=")" horiz-adv-x="643" d="M63 254v10h3q61 2 121.5 45t88.5 107q14 51 19 108q3 46 3 111v34q-1 87 -1 109q-8 113 -25 195q-2 10 -7 29.5t-5 23.5q-10 61 -65.5 103t-122.5 61q-3 103 -3 166t3 86l2 2q133 12 149 12q215 -4 307 -184q23 -39 34 -86t12.5 -90t2.5 -93.5t1 -93.5v-49q0 -10 12 -444 q-6 -125 -70 -238q-6 -12 -8 -14q-33 -45 -78 -80q-53 -41 -112 -61q-68 -20 -134 -23h-34q-72 0 -86 18q-2 35 -3.5 118t-3.5 118z" />
<glyph unicode="*" horiz-adv-x="757" d="M39 1255q12 4 86 81t92 89l2 2q8 -2 80 -69.5t82 -73.5q2 2 41 38l76 70q37 34 34 31l173 -172q-2 -27 -64.5 -89t-71.5 -79q4 0 38 -39l69 -79q37 -44 37 -47q0 -9 -10 -21q-11 -14 -29.5 -30.5t-20.5 -18.5l-133 -107q-2 -2 -3.5 -2t-2.5 2q-23 31 -39 39 q-94 94 -108 101q-8 -6 -61.5 -56.5t-74.5 -64.5q-12 -8 -14 -8q-139 131 -176 161q8 12 32 39l58 64l51 55q2 2 -2 10q-10 18 -72.5 90t-68.5 84z" />
<glyph unicode="+" horiz-adv-x="884" d="M27 786h7q24 0 121 8q118 9 132 13q0 14 4 129l5 59.5t3 40.5l6 37q0 -11 87 -11q25 0 57 1q96 3 131 3q18 0 22 -1q1 -25 1 -55v-32q-1 -50 -1 -102.5t4 -64.5q25 -2 125 -2t123 -6q-2 -45 -2 -154.5t-6 -142.5q-6 -4 -118 -5t-126 -9q1 -8 1 -22q0 -20 -2 -51 q-3 -52 -8 -109.5t-5 -67.5v-6v2q0 -8 -75 -8.5t-153 2.5q-47 2 -66 2q-13 0 -15 -1v3q-2 2 -3 4q-3 34 -3 77v22q0 19 1 37q0 37 -2 73q0 37 -4 40h-4q-215 14 -227 21q-2 2 -2 4q1 13 1 35.5t-1 54.5q-2 63 -5 120.5t-3 61.5z" />
<glyph unicode="," horiz-adv-x="350" d="M43 8q0 12 8 236v2h2q33 10 69 10t93 -5t84 -7h2l-8 -236h-4l-2 -2v-4q0 -4 -2 -12t-4 -18.5t-2 -14.5l-17 -82q-12 -53 -16 -80q-2 0 -142 4q-4 4 5 37l20 82q12 49 16 80l-96 8q-4 0 -6 2z" />
<glyph unicode="-" horiz-adv-x="1048" d="M63 414q0 272 7 327h907q0 -37 -2 -107.5t-1 -127.5t9 -107h-2q-31 -2 -454 5.5t-464 9.5z" />
<glyph unicode="." horiz-adv-x="382" d="M65 77q0 16 -1 33q0 33 2 69q2 54 2 61q43 14 135 16h22q74 0 99 -12q0 -2 -3.5 -52.5t-6.5 -112t-3 -75.5v-2v-2h-4l-231 2h-6q-4 27 -5 75z" />
<glyph unicode="/" horiz-adv-x="806" d="M33 -2q-5 0 -5 9q0 10 6 31q11 40 32 93l20 53q35 111 66 181q20 74 192 532q16 43 42 124l36 114l8 20l19 53l23 69q13 38 26.5 85t23.5 90q17 -4 64 -4q31 0 74 2q20 1 37 1q77 0 96 -15q-6 -12 -13 -37l-90 -297q-6 -20 -35.5 -101l-44.5 -124l-64 -191l-87 -254 q-29 -82 -45 -123l-117 -295q-4 -8 -6 -10q-12 -2 -33.5 -2t-84 -1t-138.5 -3h-2z" />
<glyph unicode="0" horiz-adv-x="1058" d="M63 645q-5 83 -5 157q0 105 11 192q17 148 97 272q10 16 20 26q139 156 318 162q12 0 23 1q181 0 295 -123q122 -130 159 -322q17 -126 17 -213q0 -17 -1 -33q2 -32 2 -64q0 -70 -9 -141q-13 -104 -51 -207.5t-94.5 -182.5t-146.5 -125q-80 -41 -175 -41q-13 0 -25 1 q-82 4 -144 27q-68 25 -117 62.5t-79.5 92t-49 98.5t-27.5 119.5t-12.5 116.5t-5.5 125zM373 918q-8 -100 -8 -185q0 -155 26 -262q2 -6 8 -28.5t10.5 -33t12.5 -26.5t20.5 -24.5t28.5 -12.5q26 -8 48 -8q15 0 28 4q61 18 84 98q16 47 24 199q4 73 5 134q0 235 -62 317 q-31 41 -79 41q-21 0 -46 -9q-43 -10 -70 -55q-16 -26 -30 -149z" />
<glyph unicode="1" horiz-adv-x="911" d="M53 739h6q-1 6 -1 13q0 84 138 359q148 298 183 343q111 3 204 3q140 0 238 -7q12 -108 13 -313q0 -167 -9 -399q-15 -421 -15 -628q0 -46 1 -81v-4h-2q-20 -14 -66 -20q-38 -4 -67 -4h-11q-34 1 -99.5 7t-80.5 6v2q-2 56 -1 124q0 171 11 420q15 349 15 474v2l-104 -205 l-13 -24q-27 -53 -37 -68q-4 -4 -6 -4q-33 -5 -94 -4q-74 0 -188 6q-17 2 -15 2z" />
<glyph unicode="2" horiz-adv-x="1026" d="M66 4q4 45 4 169t14 198.5t53 140.5q74 84 232.5 181.5t203.5 131.5q53 33 69 102q5 24 5 46q0 42 -18 81q-29 58 -90 64q-47 0 -79 -23.5t-46.5 -65.5t-19.5 -76.5t-7 -82.5v-4h-2q-139 -14 -228 -13q-44 0 -75 3h-2v4q-12 68 -12 132q0 69 14 134q27 125 100 207 q51 66 165 98q98 27 197 27q16 0 33 -1q116 -5 191 -38q176 -92 201 -342q5 -112 4 -159v-25q-8 -102 -73.5 -177t-143.5 -110t-171 -87t-141 -107q-31 -69 -31 -99q0 -16 9 -20q42 -1 94 -1q78 0 180 2q170 3 232 3q15 -39 15 -146q0 -24 -1 -51q0 -76 4 -90q0 -2 -8 -2 l-778 -10h-92q-2 2 -2 6z" />
<glyph unicode="3" horiz-adv-x="972" d="M43 1058q-1 22 -1 41t1 35q2 32 10 58q35 117 153 185.5t250 74.5q16 1 31 1q116 0 226 -41q125 -46 176 -136q29 -47 29 -127v-21q2 -144 2 -274q0 -219 -7 -403q-2 -18 -3 -59.5t-3 -64t-9 -55t-19 -59.5q-57 -143 -205 -190q-82 -24 -189 -24q-68 0 -145 9 q-14 2 -113 29q-59 16 -96 53q-57 57 -68 146q-6 33 -10 102.5t-8 107.5l2 3h2q6 0 13 -1q39 0 114 9.5t123 9.5h16h2l2 -2q29 -82 119 -118q29 -12 56 -11q56 0 100 51q20 29 20 66q0 13 -3 27q-9 54 -50 85q-52 37 -132 38q-43 0 -93 -11q-15 14 -15 83q0 24 2 55 q5 76 4 114q0 22 -1 30v3q27 10 111.5 10t130.5 24q42 23 43 90q0 6 -1 13q-2 86 -66 104q-21 6 -42 6q-45 0 -94 -26q-72 -39 -93 -97q-18 -2 -84.5 -2t-124 -1t-61.5 -1v4q0 13 -2 57z" />
<glyph unicode="4" d="M20 743v2q6 6 15 19q176 289 436 674l2 2q4 0 85 2t141 3h38q36 0 62 -1h4q0 -670 8 -715l2 2q20 6 62.5 -1t50.5 -7l-13 -313h-2q-20 -6 -54 -5t-54 -4h-2q0 2 -3 -34.5t-8.5 -91t-9.5 -110.5t-8 -100.5t-6 -54.5q-4 -6 -18.5 -9t-44 -4t-57.5 -1h-85h-100q-1 18 -2 62 q0 22 1 51q1 86 3 204.5t2 120.5q-12 4 -118 5q-53 1 -103.5 1t-100.5 -1h-26q-72 0 -74 5v2q-23 105 -23 251q-1 23 0 46zM328 725q0 -2 43 -2q45 0 97 1t67 3h4v4l6 285q0 4 -4 4q-21 0 -166 -223q-8 -14 -25 -37l-11.5 -18t-6.5 -11z" />
<glyph unicode="5" horiz-adv-x="1015" d="M47 1425h2q41 4 439 12q214 4 324 4q93 0 110 -3q2 -2 2 -33t-1 -75t-3.5 -88t-2.5 -75l-2 -32q-109 -14 -559 -15h-2v-4v-2l2 -2v-4q2 -8 4 -33.5t9 -36.5l2 -2l2 -2h2q63 12 122 13q48 0 93 -9q119 -18 199.5 -95t113.5 -184.5t44 -236.5q4 -43 4 -85q0 -84 -15 -163 q-18 -92 -93 -160.5t-174 -100.5q-96 -31 -203 -30h-7q-111 1 -202 34.5t-151 112.5q-57 76 -57 182q0 60 12 126v4l291 11q2 -4 2 -11q8 -72 44 -100q26 -21 60 -21q12 0 25 3q90 16 125 103q18 45 18 90q0 43 -16 86q-33 89 -112 114q-39 7 -115 7q-50 0 -116 -3 q-110 -5 -167 -6q-29 0 -45 2q-4 0 -4 2q0 194 -4 706z" />
<glyph unicode="6" horiz-adv-x="1067" d="M78 790q2 89 10 211q0 8 3 72t13 96q2 6 11 29q51 119 191 185.5t296 66.5h15q178 0 278 -141q72 -102 72 -213q0 -50 -15 -103q-45 -6 -145 -9t-125 -5h-4v2q-4 96 -47 141q-30 30 -72 30h-3q-44 -1 -75 -32q-47 -39 -57 -111q-6 -40 -6 -93q0 -42 4 -93q7 -90 6 -135 v-20v-2q49 29 104 45q95 24 167 24q45 0 81 -10q88 -29 142 -88q53 -47 69 -172l4 -49q3 -25 3 -49q0 -124 -72 -210q-86 -103 -220 -140q-92 -25 -196 -24q-47 0 -96 5q-88 14 -153.5 65.5t-101.5 135.5t-56.5 171t-23.5 209q-2 73 -2 134q0 41 1 77zM521 372 q13 -38 46 -55q28 -11 56 -10q35 0 69 17q51 25 60 67v19v4v4q0 18 -2 26q-14 57 -66 66q-15 2 -29 2q-74 0 -123 -63q-16 -25 -15 -51q-1 -13 4 -26z" />
<glyph unicode="7" horiz-adv-x="985" d="M51 14l259 540q189 388 280 595q-305 20 -456 20q-38 0 -66 -2h-5q4 37 11 279v2q297 8 507 8q257 0 384 -12v-2q-2 -15 -3 -60q0 -33 2 -83q3 -116 3 -142q-94 -217 -317.5 -616.5t-287.5 -526.5q-25 0 -93 -4t-125.5 -4t-92.5 8z" />
<glyph unicode="8" horiz-adv-x="1105" d="M121 419q6 183 129 302q-80 80 -102 204q-9 51 -8 100q0 70 18 137q31 114 116.5 198t206.5 90q96 2 163 2t118 -11t94 -38q53 -37 84 -78l25 -35q25 -35 30 -78q10 -43 21 -104q4 -25 4 -37v-8v-12v-37q0 -27 -8 -64q-35 -147 -150 -241v-2q96 -72 132 -187 q21 -67 21 -134q0 -48 -10 -95q-26 -115 -102 -199q-66 -80 -207 -106q-60 -11 -120 -12q-81 0 -160 21q-139 36 -201 122q-95 112 -95 281q1 10 1 21zM454 469q-2 -13 -3 -24q0 -56 55 -80q27 -9 67 -10q23 0 50 3q20 6 30 15q4 2 27 37q2 4 4 16l4 10v6q2 4 2 7 q0 16 -2 22q-12 43 -35 61q-40 37 -90 37q-17 0 -35 -4q-61 -20 -74 -96zM471 1032q-1 -9 -1 -19q0 -37 19 -72q25 -44 78 -46q6 -1 11 -1q59 0 81 62q9 24 9 45q0 36 -27 64q-25 24 -64 24q-18 0 -40 -6q-12 -4 -17 -6q-8 -4 -24 -16q-18 -12 -23 -23q-2 -4 -2 -6z" />
<glyph unicode="9" horiz-adv-x="1030" d="M52 998q-1 22 -1 43q0 111 33 184q23 45 45 69q125 147 389 158q18 0 68.5 -1t75 -3t66.5 -8t66.5 -17.5t53.5 -33t47 -52.5q66 -100 70 -372l4 -303q4 -144 3 -212q0 -45 -1 -57q-20 -162 -103 -276q-82 -100 -238 -122q-44 -6 -89 -6q-111 0 -217 39q-150 54 -220 154 q-54 81 -53 193q0 33 4 69v11q29 0 105 4t110.5 4t106.5 -4q10 -41 47 -70q34 -27 76 -27h6q68 6 92 81q18 56 18 125q0 23 -2 46l-2 2q-74 -30 -149 -29q-64 0 -129 21q-141 47 -219 166q-56 84 -63 224zM406 1032q4 -47 14 -76v-2q29 -61 105 -65h11q68 0 97 47 q6 10 12 25q4 12 8 26q3 13 3 37q0 52 -59 83q-34 18 -67 18q-30 0 -61 -15q-63 -23 -63 -78z" />
<glyph unicode=":" horiz-adv-x="385" d="M65 765q0 16 -1 33q0 33 2 69q2 54 2 61q43 14 135 16h22q74 0 99 -12q0 -2 -3.5 -52.5t-6.5 -111.5t-3 -76v-2v-2h-4l-231 2h-6q-4 27 -5 75zM65 77q0 16 -1 33q0 33 2 69q2 54 2 61q43 14 135 16h22q74 0 99 -12q0 -2 -3.5 -52.5t-6.5 -112t-3 -75.5v-2v-2h-4l-231 2 h-6q-4 27 -5 75z" />
<glyph unicode=";" horiz-adv-x="356" d="M44 765v33q0 33 1 69q2 54 2 61q43 14 135 16h22q74 0 99 -12q0 -2 -3 -52.5t-6 -111.5t-3 -76v-2v-2h-4l-232 2h-6q-4 27 -5 75zM45 8q0 12 8 236v2h2q33 10 69 10t93 -5t84 -7h2l-8 -236h-4v-2q-2 -2 -2 -4q0 -4 -2 -12t-4 -18.5t-2 -14.5l-17 -82q-12 -53 -16 -80 q-2 0 -142 4q-4 4 5 37l20 82q12 49 16 80l-96 8q-4 0 -6 2z" />
<glyph unicode="&#x3c;" horiz-adv-x="727" d="M8 553q47 57 111 125l149 156l125 127l117 120q23 -14 76 -69.5t80 -71.5q-39 -51 -173.5 -189.5t-187.5 -203.5q57 -49 183 -174t196 -183l-22 -20l-33 -33q-43 -43 -105 -98l-2 2q-29 29 -225.5 209t-288.5 303z" />
<glyph unicode="=" horiz-adv-x="915" d="M63 668q0 231 7 280h776q0 -31 -2 -92q-1 -41 -2 -76q0 -18 1 -35q1 -49 9 -90h-2q-7 -1 -34 0q-83 0 -356 4q-364 7 -397 9zM63 244q0 231 7 280h776q0 -31 -2 -92q-1 -41 -2 -76q0 -18 1 -34q1 -49 9 -91h-2q-7 -1 -34 0q-83 0 -356 5q-364 6 -397 8z" />
<glyph unicode="&#x3e;" horiz-adv-x="729" d="M45 190q70 57 196 182.5t183 174.5q-53 66 -187.5 204t-173.5 189q27 16 80.5 71.5t75.5 69.5l117 -120l125 -127l149 -156q63 -68 111 -125q-92 -123 -288.5 -303t-225.5 -209l-2 -2l-105 98l-32 33z" />
<glyph unicode="?" horiz-adv-x="919" d="M23 1020v2q10 164 122.5 291t280.5 135q25 2 49 2q159 0 278.5 -105t119.5 -253q0 -22 -3 -45q-12 -106 -96 -218q-23 -33 -63.5 -74.5t-59.5 -66.5q-70 -94 -100 -250q-9 -34 -9 -56q0 -7 1 -13v-2q-34 -5 -88 -5h-38q-40 1 -72 1.5t-54 -1.5h-2q-8 8 -8 46l4 77 q29 166 80 244q14 27 52 78l66 93q29 42 51 89q12 27 12 50q0 18 -7 33q-16 36 -72 56q-26 14 -48 15q-13 0 -24 -5q-31 -13 -45 -36t-34.5 -50.5t-43.5 -35.5q-48 -3 -72 -3h-12q-25 1 -82.5 4t-82.5 3zM278 77q0 16 -1 33q0 33 2 69q2 54 2 61q43 14 135 16h22 q74 0 99 -12q0 -2 -3.5 -52.5t-6.5 -112t-3 -75.5v-2v-2h-4l-231 2h-6q-4 27 -5 75z" />
<glyph unicode="@" horiz-adv-x="1157" d="M59 971q12 166 119 281q99 108 251 108h22q54 6 109 6q139 0 290 -37q156 -57 207 -174q49 -88 49 -225q-9 -147 -9 -241q0 -31 1 -56q0 -139 -13 -209q-16 -59 -55 -94q-62 -9 -147 -9q-95 0 -217 11v2q-4 10 -15.5 42t-19.5 48q-14 27 -32.5 37t-43.5 -8 q-12 -12 -18 -27q-10 -18 -18.5 -54t-12.5 -44h-2q-16 3 -45 2q-14 0 -31 -0.5t-31 -0.5q-28 0 -43 3q-6 43 56.5 345t101.5 378q20 4 63 3h12q34 0 54 5q82 -330 117 -522q10 -39 30 -60q20 -14 46 -15t43 15q27 45 29 106q1 13 1 27q0 52 -9 118q-11 85 -11 118q0 6 -4 45 l-5 49q-1 10 -6.5 45t-10.5 48.5t-13 40t-18.5 42t-26 32.5t-33.5 30q-41 18 -94 22q-46 5 -90 5q-158 0 -285 -64q-47 -45 -70 -172q-29 -141 -31 -285q0 -10 -1 -21q0 -133 37 -268q39 -145 122 -231q59 -45 183 -49q18 -1 35 -1q104 0 200 21q113 25 178 58l66 -142 q-131 -89 -375 -89q-47 0 -98 3q-28 2 -53 3q-19 0 -35.5 -1.5t-34.5 -1.5q-24 0 -51 2q-47 4 -82 19q-219 82 -219 398v11q-14 243 -14 443q-1 67 1 129zM551 623q6 4 34.5 1t35.5 -3l2 2v4q-33 125 -41 127h-2q-13 0 -23 -82q-4 -20 -6 -49z" />
<glyph unicode="A" horiz-adv-x="956" d="M37 4q0 2 26 155l61 335q34 182 96.5 448t129.5 492q29 4 43 3q7 -1 25.5 -1t48.5 1q59 1 135 7q14 -55 83 -358.5t85 -366.5l154 -717v-2q-52 -11 -110 -11q-77 0 -165 19h-2q-49 133 -106 262q-16 2 -127 6q-27 -27 -45.5 -137t-34.5 -137q-2 0 -6 -2q-16 -1 -30 -1 h-12q-17 1 -91 3q-37 1 -75.5 1t-78.5 -1q-2 0 -4 2zM410 586q135 -6 151 -6q-16 76 -25.5 113.5t-23.5 84.5t-26 51q-3 1 -5 1q-9 0 -18 -10q-12 -13 -25.5 -73.5t-27.5 -160.5z" />
<glyph unicode="B" horiz-adv-x="999" d="M70 711q2 256 2 432.5t-2 273.5l2 2q104 29 211 40q47 5 94 5q61 0 123 -8q111 -14 194.5 -57t138.5 -135q52 -89 52 -214q0 -155 -101 -329q-10 -18 11 -43q61 -78 85.5 -113t46.5 -110q13 -45 13 -93q0 -32 -6 -65q-14 -80 -49 -138.5t-91.5 -91t-111.5 -51t-138 -22.5 q-66 -3 -117 -3h-24q-57 1 -148 7t-134 6q-35 0 -45 4q-7 136 -8 436q1 121 2 267zM340 417q0 -69 27 -128l4 -2q10 0 57 -1q16 0 29 -1q26 0 41 2q23 2 54.5 14t49.5 37q23 33 23 74q0 35 -17 77q-29 55 -88 70q-31 8 -89 11t-71 5q-20 -82 -20 -158zM352 999 q-1 -22 -1 -41q0 -67 11 -98q42 -5 78 -5q123 0 160 67q27 48 27 84q0 21 -9 38q-29 59 -100 76q-47 9 -84 9q-48 0 -80 -15q1 -5 1 -19q0 -29 -3 -96z" />
<glyph unicode="C" horiz-adv-x="1050" d="M59 1063q-1 11 -1 23q0 53 24 110q37 109 108 172q39 29 101 45q75 25 152 25q31 0 63 -4q109 -14 193.5 -68.5t147 -136.5t76.5 -183q4 -29 3 -60q0 -74 -23 -152q-49 -10 -110 -10q-79 0 -179 16q-2 20 -4 66t-7 75t-16.5 61.5t-39.5 48.5q-25 14 -62 13h-10 q-78 -10 -98 -31q-4 -4 -12 -26q-8 -16 -14 -221q-2 -68 -1 -129q0 -122 6 -216q16 -154 113 -182q10 -1 19 -1q87 0 122 71q16 35 19.5 108.5t5.5 87.5q10 -1 43 -1t89 1q14 0 27 1q88 0 107 -13q21 -77 21 -149q0 -63 -16 -121q-34 -127 -141.5 -215t-250.5 -91 q-38 -5 -76 -4q-117 0 -221 49q-137 65 -151 218q-9 199 -10 478q0 160 3 345z" />
<glyph unicode="D" horiz-adv-x="997" d="M86 1407q0 2 2 4l4 4q68 18 152 22q42 2 88.5 1.5t98.5 -1.5q62 -2 105 -2q29 0 50 1q63 -14 123.5 -62.5t99.5 -109.5q84 -131 123 -301q14 -51 18 -129q-10 -287 -28 -385q0 -2 -1 -2.5t-1 -2.5q-63 -190 -261 -434q-270 -6 -538 -6q0 -2 -2 -2q-25 193 -31 451 q-3 141 -3 269q0 107 2 205.5t2 206.5q0 130 -3 273zM377 985q3 -49 3 -144q0 -48 -1 -107t-1 -110q0 -101 3 -169q17 -15 76 -16q27 0 63 3h3q9 0 34 13q33 20 64 65q57 87 56 184q0 36 -7 72q-10 53 -21.5 89t-40 76t-71.5 54q-40 6 -76 6q-42 0 -78 -8h-4h-2v-8z" />
<glyph unicode="E" horiz-adv-x="1009" d="M77 975q1 225 13 436q252 12 543 16q97 1 163 2q132 0 142 -6q6 -41 6 -90t-3 -108.5t-3 -91.5v-3q-88 -21 -238 -20h-28q-42 1 -81 1q-114 0 -190 -5h-6l-2 -2q0 -12 -5 -121q-2 -32 -1 -55q0 -56 8 -64l2 -2l252 -6v-2q8 -6 8 -85q0 -24 -1 -54q-3 -131 -3 -146 q-41 -10 -144 -10t-103 -12q-8 -44 -8.5 -108t8.5 -148l2 -2q74 0 254 -6q135 -5 226 -5q30 0 56 1v-5q2 -45 2 -83q0 -117 -18 -185q-94 0 -268 -3q-130 -2 -241 -2h-73q-141 1 -258 9q0 139 -6 440q-5 257 -5 459v66z" />
<glyph unicode="F" horiz-adv-x="1003" d="M66 4q0 229 2 640t2 747v2q82 14 245 25q139 10 305 10q30 0 61 -1q202 -2 304 -30v-303q-72 -6 -264.5 -15.5t-282.5 -17.5q-21 -48 -20 -92q0 -48 24 -92q2 -2 4 -3q38 -6 102.5 -6t156.5 6q7 -15 7 -68v-14q-1 -67 -3 -133q-1 -22 -1 -42q0 -41 3 -78q0 -4 -6 -4 q-41 -6 -131.5 -14.5t-131.5 -16.5h-2q-12 -137 -16 -502q-88 -6 -209 -7h-26q-98 0 -121 7z" />
<glyph unicode="G" horiz-adv-x="1034" d="M55 856q0 162 15 262q25 180 110 240q82 66 199 76q55 8 108 8q94 0 181 -26q135 -40 209 -154q45 -70 45 -160q0 -57 -19 -123v-2l-8 -8q-87 -3 -146 -3q-78 0 -106 5q-53 172 -139 172q-100 -4 -133 -33q-8 -8 -15 -45q-22 -193 -22 -371q0 -119 10 -231q0 -10 3 -45 t5 -50.5t12.5 -39t28.5 -37.5q18 -12 47 -19q13 -2 28 -2q46 0 99 21q51 23 64 59q8 37 -19 43q-10 2 -55 0t-49 6q-6 47 -7 155t-5 153v6h6q123 8 399 8h4l2 -2q16 -141 16.5 -257t-16.5 -206q-16 -182 -194 -246q-148 -40 -266 -40q-95 0 -171 26q-76 33 -128 97.5 t-64 146.5q-6 35 -14 90q-6 92 -8.5 267t-6.5 259z" />
<glyph unicode="H" horiz-adv-x="1011" d="M74 1430v2h2h4q21 -3 59 -4q31 0 74 3q31 2 56 1q49 0 71 -7q10 -82 17.5 -262t25.5 -276h2q25 -6 55.5 -7t53 0t60.5 5t52 4h2q13 148 13 320q0 103 -5 214q82 27 188 28q44 0 93 -5l55 -1434q-55 -10 -168.5 -11t-117.5 -1h-2q-14 96 -17.5 289.5t-13.5 275.5l-2 2 q-61 9 -115 10q-66 0 -123 -14q-3 -45 -3 -124q0 -66 2 -156q1 -47 1 -88q0 -128 -12 -181q-25 -14 -82 -13q-29 0 -66 3q-50 5 -81 5q-38 0 -50 -7q-16 178 -26 651q-6 263 -6 473q0 169 4 304z" />
<glyph unicode="I" horiz-adv-x="514" d="M78 -8q12 136 12 358q0 167 -7 382q-6 184 -6 329q0 251 17 385v4q3 1 11 1q11 0 32 -2q35 -3 41 -3q170 -6 225 -6h50v-8q0 -147 -7.5 -473t-7.5 -476.5t13 -472.5q-7 -22 -123 -21q-27 0 -60 1q-104 4 -152 3q-31 1 -38 -1z" />
<glyph unicode="J" horiz-adv-x="962" d="M20 590q58 13 132 13q83 0 186 -17v-2v-11q12 -229 123 -233q12 -3 22 -3q40 0 66 36q33 45 37 110q-6 398 -6 649q0 201 4 308v14l299 4q-1 -32 -1 -72q0 -121 4.5 -317.5t4.5 -320.5v-74q-2 -25 -3 -98.5t-4 -111.5t-10.5 -104.5t-23.5 -106.5t-40 -88t-63.5 -80 t-93.5 -52q-102 -50 -227 -50q-74 0 -156 17q-80 23 -134 87.5t-78.5 154.5t-32.5 174q-5 56 -6 114q0 30 1 60z" />
<glyph unicode="K" horiz-adv-x="999" d="M81 709q8 441 7 642v79v2q20 1 47 0q41 0 97 -1q95 -3 130 -4q4 -74 5.5 -229.5t3.5 -214.5v-2l2 -2q63 82 152 231.5t137 216.5l2 3q14 -1 50 -1.5t94 1.5h42q77 0 92 -7q-61 -215 -276 -684v-4l278 -727q-31 -6 -134 -6q-62 0 -151 2q-53 59 -98 132t-100 176l-80 147 q-2 -28 -2 -84.5t2 -141.5q3 -113 3 -174q0 -31 -1 -49q-54 -13 -137 -13h-13q-92 1 -149 13q-7 91 -7 307q0 161 4 392z" />
<glyph unicode="L" horiz-adv-x="948" d="M63 -2v37q10 217 13.5 407.5t3.5 298t-4 335t-6 364.5q37 18 154.5 18t172.5 -24q-2 -93 -2 -234t2 -330q3 -251 3 -409q0 -79 -1 -135v-2q10 2 46 2q66 0 218 -8q172 -8 235 -8q23 0 32 1l-4 -125q3 -71 3 -112t-3 -52q-6 -24 -47 -22h-7q-7 1 -22 1q-23 0 -67 -2 q-73 -3 -230 -5q-39 -1 -90 -1q-151 0 -400 5z" />
<glyph unicode="M" horiz-adv-x="1001" d="M74 1403q33 8 80 10q24 1 50.5 1t56.5 -1t53 -1t38 1h2q31 -33 68 -102.5t47 -85.5q6 -6 12 -6q29 31 74 101.5t68 96.5q41 0 148 5q77 4 123 4q18 0 32 -1q-2 -54 -2 -136q0 -103 3 -251q2 -102 2 -183q0 -129 -5 -204l-6 -653q-18 5 -89 5q-23 0 -53 -1 q-117 -2 -129 -2q-2 25 -7 305.5t-22 417.5v2l-110 -147q-18 8 -40 46t-46 64q-20 22 -47 22q-6 0 -13 -1q-1 -154 -1 -278q0 -309 8 -425q-39 -6 -85 -8q-23 -1 -52 -1t-63 1q-69 2 -87 2q-4 0 -6 6q-7 23 -7 437q0 345 5 960z" />
<glyph unicode="N" horiz-adv-x="1040" d="M80 979q2 242 18 444q40 14 100 14q20 0 43 -1q89 -6 156 -27v-2q6 -25 47 -97.5t114 -191.5t89 -147q6 25 7 80q0 51 -6 127q-5 70 -5 126q0 72 8 121v7q66 14 178.5 14t141.5 -8l-2 -656q2 -115 2 -376t4 -371l-2 -29q-10 -20 -70 -21h-15q-52 0 -107 6q-29 3 -55 3 q-29 0 -54 -4h-2q-104 231 -246 612q-14 -227 -14 -419q0 -96 4 -183l-2 -2q-18 -9 -64 -9q-37 0 -92 6q-76 8 -122 8q-28 0 -46 -3l-2 2q1 46 1 103q0 141 -4 345.5t-4 386.5q0 73 1 142z" />
<glyph unicode="O" horiz-adv-x="991" d="M68 987q4 229 108 350q20 20 47 37q118 61 264 62q19 0 39 -1q170 -9 289 -98q59 -53 84 -125q20 -47 33 -127q5 -56 5 -127q0 -36 -1 -75q-4 -68 -4 -207t-6 -213l-6 -68q-6 -162 -78 -276q-63 -90 -211 -125q-83 -23 -173 -23q-30 0 -61 2q-100 8 -168.5 39t-101.5 105 q-45 84 -49 227q-13 340 -13 518q0 78 3 125zM287 637q4 -31 9 -91.5t11 -108.5t19 -89q39 -82 143 -90q11 -1 21 -1q90 0 145 65q18 23 26.5 41t10.5 30.5t2 48t2 66.5q0 20 1 49t2 42t1 15v99l-4 139l-2 20q-2 18 -4 47t-2 50q-10 127 -107 174q-28 10 -55 10 q-53 0 -105 -39q-72 -55 -96 -141q-21 -107 -21 -239q0 -47 3 -97z" />
<glyph unicode="P" horiz-adv-x="993" d="M63 1423q135 37 284 37t290 -37t237.5 -144.5t104.5 -272.5v-2q0 -37 -2 -54q-25 -195 -194 -318q-135 -99 -288 -99q-38 0 -77 6q3 -49 3 -71q0 -3 -0.5 -49t-0.5 -101q0 -124 6 -293v-2l-2 -3h-4q-55 -14 -165 -15h-24q-93 0 -153 7q-6 193 -6.5 685.5t-8.5 725.5z M362 1031q-1 -17 0 -34q0 -35 3 -74q4 -58 16 -94h6q10 0 66.5 3.5t80 6.5t61.5 15t62 35q28 36 28 83q0 12 -2 25q-9 63 -62 95q-73 57 -168 57q-40 0 -84 -10q-5 0 -7 -2q1 -28 1 -54.5t-1 -51.5z" />
<glyph unicode="Q" horiz-adv-x="1032" d="M78 561q0 119 1 170t10 208t11 177q6 47 19 92q18 49 54 79t106 59q94 46 246 46q76 0 167 -12q150 -33 221 -206q0 -2 4.5 -10.5t4.5 -10.5q10 -31 16 -53q12 -84 17 -186q4 -84 5 -146q0 -12 -1 -24q-1 -69 -5 -192.5t-4 -174.5q1 -20 1 -40q0 -114 -42 -177 q0 -16 22.5 -30.5t26.5 -20.5v-3q-4 -18 -0.5 -58t-1.5 -54q-8 -6 -29.5 -5t-33.5 -1q-27 -7 -59 -8q-4 0 -8 1q-36 1 -60 21l-6 6q-12 -2 -77 -10t-88.5 -10t-78.5 -6q-37 -3 -64 -3q-13 0 -24 1q-33 2 -78 8t-84 18q-70 31 -116 105q-18 27 -29 67q-20 88 -31.5 176 t-11.5 207zM365 987q-31 -132 -31 -271q0 -168 45 -343q33 -113 113 -125q12 -2 34 -2q37 0 63.5 15t41 32.5t25 53.5t14.5 56.5t8 63.5q2 10 2 16q11 90 11 176q0 135 -27 261q-4 12 -13.5 51t-18.5 63.5t-28 42.5q-34 29 -80 29q-13 0 -26 -2q-96 -8 -133 -117z" />
<glyph unicode="R" horiz-adv-x="1089" d="M63 1432q236 35 407 34q71 0 132 -6q119 -6 217.5 -69.5t149.5 -157.5t57 -208q1 -9 1 -19q0 -104 -62 -201q-86 -166 -267 -178h-8h-2v-2q20 -37 168 -261.5t197 -357.5h2q-16 0 -160 -5q-65 -2 -108 -2q-52 0 -72 3h-2q-160 360 -285 514l-4 6q-4 -38 -4 -112 q0 -135 14 -387q-41 -16 -123 -21q-66 -3 -125 -3h-29q-73 1 -79 1q10 1 9 296q0 147 -2 369q-8 663 -22 767zM362 1145q2 -33 4.5 -126t6.5 -126h2q73 -5 124.5 -5t82.5 5q78 16 87 109q1 13 1 25q0 75 -52 112q-45 39 -112 39q-63 0 -144 -33z" />
<glyph unicode="S" horiz-adv-x="1081" d="M74 410v6v6q13 7 88 7q30 0 70 -1q140 -4 155 -4q6 -90 96 -121q32 -12 61 -11q48 0 85 32q37 31 37 83q0 14 -2 29q-2 20 -9.5 39t-21.5 33l-26 25q-11 11 -34.5 21.5t-37 15.5t-42 12.5t-39.5 9.5l-44 8q-33 6 -39 8q-72 14 -140 70q-90 86 -120 198q-17 61 -17 118 q0 48 11 93q26 100 94.5 185.5t167.5 126.5q88 33 190 33q19 0 38 -1q124 -7 226 -55q104 -53 155 -156q32 -66 32 -149q0 -47 -11 -100h-2q-89 -16 -164 -16q-80 0 -143 18q3 15 4 29q0 61 -67 96q-40 21 -77 21q-35 0 -67 -19q-41 -25 -49 -76q-4 -18 0 -55 q23 -72 133 -88q225 -27 355 -215q70 -90 76 -214q1 -15 1 -31q0 -106 -45 -196q-47 -121 -154 -180q-101 -56 -224 -56q-8 0 -17 1q-197 6 -346 121q-138 106 -138 271q0 14 1 28z" />
<glyph unicode="T" horiz-adv-x="946" d="M40 1236q-1 35 -1 69q0 68 4 133l-2 2v2q119 3 270 3q76 0 160 -1q252 -2 434 -21q4 -59 4 -115q0 -103 -12 -202q-17 3 -79.5 3t-170.5 -3h-4h-2l-2 -2v-4q-1 -5 -1 -61q0 -196 11 -1023v-2v-2q-51 -8 -169 -8t-167 -6q0 4 2 112q1 54 1 147.5t-1 227.5q-2 268 -16 605 l-2 2q-39 18 -137.5 19t-108.5 5q-8 15 -11 120z" />
<glyph unicode="U" horiz-adv-x="1019" d="M61 301q0 143 6 517q4 267 3 445v128l-2 2h2q12 0 65 2l82 3h12q25 0 59 -3q42 -4 70 -13v-2q-8 -176 -8 -353q0 -323 27 -652q18 -63 76 -85q25 -9 49 -10q31 0 61 16q53 28 66 89q8 186 12 534.5t6 456.5q16 0 67.5 6.5t87.5 8.5q12 1 24 0q25 0 55 -2q43 -4 65 -19 q10 -206 10 -398q0 -356 -34 -663q-18 -139 -105.5 -231t-230.5 -107q-35 -4 -69 -3q-85 0 -168 22q-116 31 -200 111.5t-88 199.5z" />
<glyph unicode="V" horiz-adv-x="952" d="M43 1397v2q33 29 160 29q12 0 22 1q105 0 109 -10l2 -2v-2q2 -14 14 -112.5t40 -239.5t77 -338v-2q31 113 79 349.5t77 344.5q0 4 4 4q43 -9 131 -9h18h22q85 0 122 -7l2 -2q-100 -522 -340 -1401h-2q-2 0 -7 -2q-25 -5 -104 -5h-29q-104 1 -157 15q-183 668 -240 1387z " />
<glyph unicode="W" d="M51 1423v2q45 8 138 9q66 0 155 -4q6 -74 14.5 -226.5t20.5 -271.5t39 -223q12 41 23.5 89t22.5 112.5t17 93.5v2q25 -31 43.5 -153t32.5 -155q4 33 33 307l43 414v2q63 12 149 12q61 0 133 -6l3 -2q-16 -197 -65.5 -676t-70.5 -739q-6 -4 -82 -4h-84q-25 33 -57.5 117 t-56.5 121l-2 2q-27 -27 -65 -116t-54 -116q-57 -9 -107 -9q-37 0 -71 5h-2q-6 39 -28 195l-30 212q-8 56 -25.5 191t-25.5 213t-18.5 192.5t-15.5 213t-7 196.5z" />
<glyph unicode="X" horiz-adv-x="1032" d="M47 18v5q23 82 103.5 320.5t109.5 367.5v4q-84 397 -145 571l-37 96q0 2 -1 4.5t-1 4.5q190 16 272 15q57 0 62 -7l2 -2q18 -63 65 -177t64 -161q23 49 43 109.5t42.5 142.5t32.5 114v2q92 8 324 9h2q0 -2 -1 -2t-1 -2q-143 -434 -188 -736q14 -78 35.5 -220t42 -258 t45.5 -216v-2q-18 2 -52.5 2t-84.5 -2q-28 -1 -51 -1q-58 0 -85 7h-2h-2l-2 2q-31 66 -65.5 211.5t-67.5 212.5q-2 0 -2 2q-45 -68 -98.5 -222.5t-75.5 -203.5q-51 -3 -100 -3q-96 0 -181 13h-2z" />
<glyph unicode="Y" horiz-adv-x="958" d="M51 -4q45 141 266 704v5q-29 123 -128 357t-128 347q25 0 95 6q60 5 108 5h17q55 -1 92 -15q51 -215 121 -354q59 109 161 350q2 2 4 2q117 16 197 16q55 0 90 -8v-2q-80 -254 -302 -719t-298 -692q-18 2 -53 2t-87 -2q-69 -3 -113 -3q-22 0 -38 1h-4z" />
<glyph unicode="Z" horiz-adv-x="1026" d="M57 1413q127 12 262 15q51 1 113 2q104 0 240 -4q217 -5 282 -5q5 -19 6 -85q0 -33 -2 -79q-4 -135 -4 -161v-2q-92 -154 -284.5 -431.5t-241.5 -353.5l-2 -2q98 12 171 16.5t166 5.5t179 5v-6q6 -50 6 -119q0 -89 -10 -209v-4q-230 13 -448 13q-200 0 -390 -11 q-17 54 -17 148v11v63q0 60 -1 106q41 92 109.5 204.5t122.5 190.5l145 201l125 174q-172 20 -494 26q-16 31 -16 129.5t-13 151.5v2q0 4 -4 8z" />
<glyph unicode="[" horiz-adv-x="653" d="M72 4q2 57 2 609t18 829v2q49 7 126 7q57 0 130 -4q90 -5 153 -5q56 0 91 4q0 -203 -12 -242h-2h-5q-15 2 -38 2q-29 0 -71 -3q-53 -4 -85 -3h-23h-2q-11 -176 -11 -282v-17q1 -109 9 -316.5t8 -291.5v-2q39 -10 220 -21q8 -117 8 -197q0 -40 -2 -71l-199 -2 q-254 0 -315 -4v8z" />
<glyph unicode="\" horiz-adv-x="806" d="M14 1436q35 15 112 14h20q31 -1 57 -1q51 0 82 3q10 -43 23.5 -90t26.5 -85l23 -69l19 -53l8 -20l36 -114q26 -81 42 -124q172 -459 192 -532q31 -70 66 -181l20 -53q20 -53 32 -93q6 -21 6 -31q0 -9 -5 -9h-2q-61 2 -114 3q-26 1 -44.5 1t-29.5 -1q-23 -1 -40.5 0 t-27.5 3q-2 2 -6 10l-117 295q-16 41 -45 123l-87 254l-64 191q-14 43 -44 123.5t-36 101.5l-90 297q-7 25 -13 37z" />
<glyph unicode="]" horiz-adv-x="653" d="M61 1446q35 -4 91 -4q63 0 153 5q73 4 130 4q77 0 126 -7v-2q20 -276 21 -829v-609v-8q-61 4 -316 4l-198 2q-2 31 -2 71q0 80 8 197q180 10 219 21v2q0 84 8 292t9 316v17q0 106 -11 282h-2q-9 -1 -22 0q-32 0 -86 3q-42 3 -70 3q-23 0 -39 -2h-4h-2q-13 39 -13 242z " />
<glyph unicode="^" horiz-adv-x="901" d="M23 979q41 55 98 117.5t97 100.5l122 113l111 101l430 -430q-2 2 -45 -5t-107 -12q-21 -2 -45 -2q-47 0 -104 7q-14 0 -66.5 59t-69.5 68q-16 -6 -71.5 -64.5t-67.5 -62.5q-25 -2 -41 -2h-33q-16 0 -77 4t-131 8z" />
<glyph unicode="_" horiz-adv-x="1294" d="M63 -86q37 2 585 7t581 3h2q-8 -49 -9 -78.5t0 -71.5t1 -81h-118h-221q-126 0 -270.5 1t-263.5 2t-200 1h-82q-5 37 -5 217z" />
<glyph unicode="`" horiz-adv-x="522" d="M27 1270l141 143q43 -33 104 -93l136 -137q74 -77 102 -104q-31 -8 -119 -11t-155 3q-10 18 -52.5 58l-92.5 83t-62 56z" />
<glyph unicode="a" horiz-adv-x="686" d="M35 6q0 4 12 73l30 167q17 98 41.5 220t60.5 267.5t75 274.5q20 2 29.5 1t51.5 0t95 5q10 -39 59 -252l60 -256l106 -502q-38 -8 -80 -8q-52 0 -112 12q-49 127 -76 185q-23 2 -36 3t-21 0t-31 1q-20 -18 -32.5 -96t-24.5 -97h-4q-6 -2 -30 -2t-65 2q-20 1 -46.5 1 t-59.5 -1zM295 414q66 -4 106 -4l-21 94q-7 31 -20 60q-10 24 -17 24q-2 0 -4 -2q-9 -8 -20.5 -48t-23.5 -124z" />
<glyph unicode="b" horiz-adv-x="731" d="M68 505q1 179 1 302.5t-1 191.5l2 2q92 27 186 30q12 0 23 1q82 0 160 -19q89 -22 145 -92q53 -68 53 -178q0 -108 -70 -231q-6 -12 8 -31q43 -55 59.5 -78.5t32.5 -76.5q9 -32 9 -66q0 -22 -4 -45q-10 -57 -35 -97t-63.5 -62.5t-77.5 -36t-98 -16.5q-44 -2 -77 -2h-21 q-40 1 -103.5 5t-94.5 4q-20 0 -30 4q-5 100 -5 326q0 76 1 165zM263 708q-1 -15 0 -28q0 -50 9 -70q31 -4 56 -4q85 0 110 47q18 34 19 60q0 15 -6 26q-20 41 -70 54q-35 6 -61 6q-34 0 -54 -11q0 -7 -3 -80zM270 410q-16 -64 -16 -113q0 -54 20 -88h5q8 0 32 -1 q12 -1 22 -1t16 1q13 1 32.5 3t34 10t24.5 23q16 22 17 51q0 25 -13 55q-20 39 -61 49q-20 4 -61.5 6.5t-51.5 4.5z" />
<glyph unicode="c" horiz-adv-x="759" d="M59 745q-1 7 0 14q0 33 15 79q27 74 76 120q27 18 71 33q54 17 108 17q67 0 133 -27q118 -49 174 -161q32 -63 32 -131q0 -52 -19 -105q-32 -7 -73 -7q-56 0 -130 13q-2 12 -5 57t-7 66.5t-25.5 42t-58.5 18.5q-59 -10 -69 -22q-2 -2 -7 -11l-2 -8q-6 -10 -9 -153 q-1 -48 -1 -91q0 -86 4 -151q12 -109 80 -127q9 -1 17 -1q58 0 81 50q8 18 11.5 41t3.5 51.5t2 44.5q8 -1 31.5 -1t61.5 1q13 0 24 1q56 0 69 -9q18 -54 18 -105q0 -88 -53 -168q-84 -128 -235 -130q-27 -3 -54 -4q-82 0 -154 34q-95 45 -106 152q-6 127 -6 321q0 115 2 256 z" />
<glyph unicode="d" horiz-adv-x="731" d="M79 667q2 126 2 214q0 59 -1 102q2 4 4 4q47 12 105 15q29 2 62 2t70 -2q44 -2 73 -1h34q94 -23 158 -118q57 -90 86 -211q8 -31 12 -90q-10 -213 -20 -271l-3 -2q-43 -129 -182 -305q-250 -4 -377 -4q-18 135 -22 296q-2 92 -2 200q0 81 1 171zM283 686q1 -34 1 -101 q0 -33 -0.5 -74t-0.5 -77q0 -71 2 -119q6 -6 14 -8t20 -3q6 -1 11.5 -0.5t9.5 0.5q8 1 22.5 2t20.5 1q6 -2 25 8q29 16 45 47q40 58 40 127q0 25 -6 52q-27 131 -94 153q-27 4 -51 4q-30 0 -55 -6h-2h-2v-6z" />
<glyph unicode="e" horiz-adv-x="749" d="M75 679q1 161 9 308q170 8 380 11q70 1 117 1q94 0 97 -4q4 -29 4 -63.5t-2 -76.5t-2 -64q-60 -15 -162 -15h-25q-30 1 -57 1q-80 0 -133 -5h-4h-2q0 -12 -3 -86q-1 -20 -1 -35q0 -41 6 -47l2 -2q33 -2 94.5 -3t81.5 -1v-2q4 -29 5 -60q0 -11 1 -23q0 -23 -2 -51 q-2 -42 -2 -65q-25 -6 -64.5 -7t-69.5 -1t-38 -8q-5 -30 -5 -74.5t5 -103.5v-2q47 0 175 -4q85 -3 147 -3q31 0 55 1v-5q1 -26 1 -49q0 -93 -13 -137q-59 0 -186 -3q-94 -2 -172 -2h-51q-97 1 -179 7q0 106 -4 309q-3 162 -3 298v66z" />
<glyph unicode="f" horiz-adv-x="727" d="M68 2q0 162 1 449.5t1 521.5v2q102 18 297 23q31 1 61 1q157 0 283 -22v-211q-47 -4 -182.5 -10t-200.5 -13q-14 -36 -15 -66q0 -35 19 -63q0 -2 2 -2q22 -3 66.5 -3t113.5 3q6 -12 5 -58l-2 -92v-30q0 -29 1 -55q0 -2 -4 -2q-29 -4 -91.5 -10.5t-90.5 -12.5h-2 q-8 -84 -13 -350q-59 -4 -145 -5h-23q-65 0 -79 5h-2z" />
<glyph unicode="g" horiz-adv-x="755" d="M57 602q0 106 11 184q16 125 77 168q59 47 140 54q39 6 77 6q66 0 125 -19q94 -29 146 -109q31 -49 31 -112q0 -40 -13 -86q-4 -6 -6 -6q-70 -3 -114 -3t-62 3q-35 121 -96 121q-68 0 -94 -23q-2 -2 -11 -30q-15 -133 -14 -258q0 -84 6 -164q0 -6 2 -31t3 -36t9.5 -27.5 t20.5 -26.5t33 -12q11 -2 21 -2q33 0 67 14q35 14 45 41q4 29 -12 31h-39q-35 0 -35 4q-4 35 -5 109.5t-3 105.5v4h4q61 6 278 6h4v-2q12 -99 12.5 -180t-12.5 -144q-10 -127 -135 -172q-106 -27 -189 -27q-65 0 -116 17q-117 51 -135 172q-2 10 -5 30.5t-5 30.5 q-4 61 -5.5 184.5t-5.5 184.5z" />
<glyph unicode="h" horiz-adv-x="749" d="M74 995v2h4q13 -2 36 -2t56 2q22 1 39 2q35 0 51 -6q6 -57 11 -183t18 -194h2q10 -3 49 -3t106 3q10 103 11 222q0 74 -4 153q59 20 131 20q31 0 65 -3l39 -1004q-29 -6 -71 -7q-21 -1 -38.5 -1t-32.5 1q-30 1 -59 -1h-2q-10 68 -12 205t-8 190l-2 2q-39 6 -76 6 q-47 0 -90 -10q-4 -37 -4 -100q0 -42 2 -96q1 -39 1 -71q0 -79 -7 -116q-18 -11 -58 -11q-20 0 -46 3q-34 4 -56 4q-28 0 -37 -6q-10 127 -17 457q-4 178 -4 321q0 123 3 221z" />
<glyph unicode="i" horiz-adv-x="397" d="M72 0q8 97 8 257q0 114 -4 261q-4 126 -4 226q0 179 12 274v2q3 1 10.5 1t20.5 -1q25 -2 26 -2q71 -5 124 -5q18 0 34 1h35v-6q0 -98 -5 -331t-5 -334t8 -331q-5 -14 -80 -14q-21 0 -47 1q-67 3 -101 3q-27 0 -32 -2z" />
<glyph unicode="j" horiz-adv-x="694" d="M16 410q44 10 97 9q58 0 127 -11v-2v-7q6 -162 86 -163q8 -2 15 -2q28 0 46 24q23 31 27 78q-5 270 -5 450q0 135 3 220v10l209 2q0 -88 4 -273q3 -123 2 -204v-72q0 -18 -2 -68.5t-4 -78t-7.5 -72.5t-16.5 -75t-27.5 -62.5t-44 -55t-64.5 -37.5q-71 -35 -159 -34 q-52 0 -109 12q-177 50 -177 375q-1 18 0 37z" />
<glyph unicode="k" horiz-adv-x="739" d="M78 495q5 285 4 426v78v2q14 1 33 1q29 0 68 -2q67 -3 91 -3q2 -53 3.5 -163.5t1.5 -145.5v-2l2 -2q45 57 106.5 160.5t95.5 152.5l2 2h100q87 0 95 -4q-47 -164 -195 -479v-2l195 -510q-25 -4 -91 -4q-44 0 -108 2q-37 41 -68.5 93t-69.5 122l-56 102q-2 -19 -2 -58.5 t2 -98.5q3 -79 2 -122v-34q-39 -10 -104.5 -10t-104.5 10q-5 62 -5 213q0 113 3 276z" />
<glyph unicode="l" horiz-adv-x="692" d="M68 -2v25q8 154 10 285q1 88 1 152v58l-3 233q-2 155 -4 255q27 14 108.5 14t120.5 -19q-2 -66 -2 -164.5t2 -230.5q3 -176 3 -286q0 -55 -1 -93v-2q6 1 29 2q45 0 154.5 -5.5t156.5 -5.5q23 0 31 1l-2 -88q2 -44 2 -71q0 -34 -3 -44q-5 -16 -38 -16q-12 2 -62.5 0 t-160.5 -3h-49q-108 0 -293 3z" />
<glyph unicode="m" horiz-adv-x="745" d="M76 2q-4 16 -4 260.5t4 716.5q23 6 55 8q22 1 48 2q13 0 28 -1q43 -1 63 -1h2q20 -23 46 -69l34 -62q4 -6 8 -6q20 23 51 72t48 67q29 0 104 4q51 3 82 3q16 0 27 -1q-2 -44 -2 -111.5t2 -159.5q2 -73 1 -131q0 -87 -3 -138l-4 -459q-15 3 -69 3h-29q-79 -1 -91 -1 q-2 35 -5 223.5t-15 282.5v2q-8 -10 -35 -48t-43 -57q-10 6 -40 53q-26 41 -55 40h-8q0 -422 5 -492q-25 -4 -199 -4q-2 0 -6 4z" />
<glyph unicode="n" horiz-adv-x="772" d="M77 692q1 170 13 312q29 9 71 9q14 0 29 -1q61 -4 111 -19v-2q4 -16 32 -65l81 -139q53 -89 61 -101q4 17 4 57q0 35 -3 87.5t-3 93.5q0 48 4 82v4q47 10 126 10t99 -6l-2 -459q1 -52 2 -152q0 -50 -1 -111v-70q0 -131 4 -191l-3 -21q-6 -14 -45 -14t-91 4q-26 2 -44.5 2 t-29.5 -2q-86 188 -173 428q-11 -152 -10 -288q0 -69 2 -134h-2q-13 -7 -46 -7q-25 0 -62 4q-52 6 -84 6q-21 0 -33 -3l-2 2q1 38 1 85q0 95 -3 229q-3 161 -3 301v69z" />
<glyph unicode="o" horiz-adv-x="706" d="M51 692q4 164 76 246q14 14 33 27q83 42 186 41h27q119 -6 200 -68q39 -33 60 -88q16 -37 22 -88q4 -47 4 -141q-2 -45 -3 -143.5t-5 -151.5q0 -8 -2 -23.5t-2 -23.5q-4 -109 -55 -195q-45 -61 -148 -86q-60 -16 -123 -16q-19 0 -38 2q-150 12 -191 100q-31 59 -35 158 q-7 268 -7 383q0 45 1 67zM205 449l6 -65q4 -44 8 -77t12 -61q27 -57 101 -63h13q64 0 104 44q12 16 18 28.5t7 21t1 34t2 45.5q0 16 1 35t1 31v10v68l-2 98l-2 14q0 14 -2 35t-2 33q-6 88 -74 121q-20 7 -39 7q-37 0 -73 -26q-49 -41 -68 -100q-14 -72 -14 -167 q0 -32 2 -66z" />
<glyph unicode="p" horiz-adv-x="720" d="M66 989q94 25 198 26h8q100 0 196 -25q99 -26 165.5 -101.5t73.5 -190.5v-2q0 -27 -2 -37q-16 -137 -136 -224q-94 -69 -200 -69q-27 0 -56 5q2 -23 2 -50v-110q0 -82 4 -201l-2 -2h-2q-48 -12 -122 -12q-52 0 -117 6q-4 133 -4 479t-6 508zM274 788l2 -50q0 -12 -1 -23 v-18q0 -27 3 -58q3 -41 11 -66h4q10 0 37.5 1t43 3.5t38 6.5t39 12t30.5 20q19 24 19 57q0 9 -1 19q-7 45 -44 66q-52 40 -118 40q-28 0 -58 -7q-3 -1 -5 -3z" />
<glyph unicode="q" horiz-adv-x="757" d="M72 391q0 78 1 122t6 142.5t7 124.5q6 39 14 66q20 59 111 96q65 32 175 32q53 0 116 -7q102 -23 153 -146q0 -2 2 -7t5 -7l12 -37q8 -59 11 -130t3 -121t-3 -133t-3 -122v-22q0 -87 -29 -131q0 -10 15.5 -20.5t19.5 -14.5v-2q-4 -12 -1 -40q1 -12 1 -21q0 -12 -2 -17 q-6 -4 -21.5 -3t-23.5 -1q-25 -5 -43 -5q-31 0 -45 13q-4 4 -4 6q-4 0 -46 -6t-53 -7l-48 -4q-36 -3 -53 -3t-47 1t-53.5 5t-45.5 12q-49 23 -82 74q-14 20 -21 47q-14 61 -21 124.5t-7 141.5zM272 690q-23 -94 -22 -192q0 -115 31 -238q27 -78 79 -88h25q43 0 67.5 32 t28.5 55.5t11 78.5q9 63 9 126q0 91 -20 179q-4 10 -10 36t-13 44t-20 31q-22 20 -53 20q-10 0 -20 -2q-68 -6 -93 -82z" />
<glyph unicode="r" horiz-adv-x="739" d="M55 1001q168 23 286 23q51 0 93 -4q111 -6 193 -80t98 -173q4 -23 4 -46q0 -78 -43 -160q-61 -117 -186 -123h-4h-2v-2q16 -29 119.5 -184.5t136.5 -247.5q-14 0 -112 -4q-49 -2 -80.5 -2t-45.5 2h-2q-113 256 -199 360l-2 5q-3 -28 -3 -82q0 -94 9 -269q-29 -10 -89 -14 q-40 -3 -72 -3q-16 0 -29 1q-41 2 -59 0q7 0 6 207q0 103 -1 258q-6 464 -16 538zM266 801q2 -23 2 -88.5t4 -87.5h2q48 -4 84.5 -4t61.5 4q53 10 59 75q1 9 1 17q0 53 -36 80q-31 28 -77 27q-44 1 -101 -23z" />
<glyph unicode="s" horiz-adv-x="739" d="M45 285v6v4q31 4 69 4t84 -2t66 -2q4 -66 72 -86q21 -6 39 -7q40 0 67 31q17 20 17 49q0 11 -2 23q-4 39 -38 64.5t-68 35t-85 17.5q-10 2 -14 2q-51 10 -96 49q-84 80 -95 186q-2 17 -1 34q0 87 44 160q53 87 146 126q60 22 131 22q14 0 28 -1q87 -5 158 -37 q131 -67 131 -210q0 -35 -8 -75q-62 -10 -114 -10q-57 0 -101 12q3 11 3 21q0 35 -33 59q-30 22 -64 22q-14 0 -28 -4q-50 -12 -58 -63v-37q16 -51 94 -64q158 -16 248 -149q49 -61 53 -149q0 -9 1 -18q0 -77 -32 -142q-33 -84 -107 -125q-71 -39 -160 -39h-9 q-137 4 -243 84q-96 73 -96 186q0 12 1 23z" />
<glyph unicode="t" horiz-adv-x="686" d="M39 1008q86 1 161 0q302 0 445 -13q2 -37 2 -74q0 -74 -8 -149q-8 2 -52 2t-124 -2h-2h-2v-4q-1 -5 -1 -69q0 -160 7 -689v-2v-2q-35 -6 -118 -6t-118 -4q0 2 2 79q1 38 1 104t-1 159q-2 186 -12 422v2q-27 12 -95.5 13t-76.5 5q-11 20 -11 96q0 51 5 128v2z" />
<glyph unicode="u" horiz-adv-x="753" d="M63 217q0 109 5 368q3 173 2 291v105h-2h2q53 2 93 2q80 0 107 -8v-2q-4 -112 -4 -223q0 -241 19 -480q19 -66 83 -65h8q71 4 85 71q6 127 8 369t4 326q6 0 61 5q45 4 78 4h13q37 -1 57 -13q7 -144 7 -280q0 -245 -23 -464q-12 -96 -74 -161.5t-162 -73.5q-26 -3 -51 -3 q-106 0 -197 49q-113 60 -119 183z" />
<glyph unicode="v" horiz-adv-x="692" d="M45 981v2q25 18 114 21h32q57 0 59 -7v-2v-2q4 -16 11 -79.5t26.5 -165t54.5 -238.5q23 80 56.5 248t52.5 237q0 2 4 2q26 -7 76 -6h27q18 1 33 1q46 0 68 -5l3 -2q-80 -403 -240 -981h-4q-50 -6 -93 -6q-62 0 -112 12q-127 469 -168 971z" />
<glyph unicode="w" horiz-adv-x="712" d="M53 993v2q26 5 90 5q48 0 117 -3q4 -47 9 -157.5t14.5 -192.5t27.5 -153q8 27 16 61l15 78l12 65v2q16 -23 30.5 -107.5t23.5 -107.5q43 391 53 506q41 9 100 10q44 0 98 -6h3q-12 -147 -47 -480t-50 -511q-10 -2 -114 -2q-16 23 -41 82t-41 84q-18 -18 -45 -80.5 t-39 -81.5q-44 -5 -79 -5q-26 0 -46 3q-2 18 -18 120l-19 129l-16.5 118t-16.5 130l-12 119q-8 79 -12.5 130t-7.5 117.5t-5 125.5z" />
<glyph unicode="x" horiz-adv-x="753" d="M49 12v2q14 55 70.5 223.5t77.5 258.5v4q-63 315 -127 467v6q128 9 185 9q44 0 48 -5q12 -43 46 -123t44 -115q16 35 30.5 78t30 97.5t23.5 80.5v2q74 6 228 7v-3q-102 -311 -134 -516q10 -53 25.5 -153.5t30 -181t30.5 -150.5v-2q-16 2 -45 2q-22 0 -50 -1 q-22 -1 -40 -1q-36 0 -55 4h-2l-2 2q-20 45 -46 146.5t-48 150.5v2q-33 -47 -70 -155.5t-53 -143.5q-31 -2 -62 -2q-70 0 -135 10z" />
<glyph unicode="y" horiz-adv-x="692" d="M55 -2q35 109 187 494v2q-20 86 -90 249.5t-91 243.5q18 0 66.5 4t87.5 4t64 -10q35 -150 86 -248q35 63 112 244l2 2q41 6 109 8q23 1 40 1q35 0 52 -3v-2q-55 -178 -211 -503.5t-209 -483.5q-13 2 -37.5 2t-60.5 -2q-48 -3 -78 -3q-15 0 -27 1h-2z" />
<glyph unicode="z" horiz-adv-x="761" d="M63 991q70 8 155 10q57 1 103 2q23 0 44 -1q61 -1 166.5 -3t158.5 -2q4 -16 4 -62q0 -23 -1 -52q-3 -90 -3 -113v-2q-63 -106 -197 -300l-171 -249v-2q68 8 117.5 11t116.5 4t126 4v-5q4 -29 4 -77q0 -61 -6 -152v-2q-158 9 -315 9q-137 0 -273 -7q-11 36 -11 100v11v45 q0 42 -1 73q37 84 93 172.5t148 213.5l109 153q-92 10 -344 18q-12 20 -12 94t-8 103z" />
<glyph unicode="{" horiz-adv-x="655" d="M23 604q-7 33 -8 76q0 54 12 125q16 -2 31 -2q55 0 97 23q52 30 72.5 81t28.5 116q4 29 4 57q0 36 -6 71q-5 25 -5 49q0 56 26 105q38 70 114 79q63 6 125 7q37 0 74 -2q6 -38 5 -93q0 -44 -3 -98q-96 -27 -107 -82q-4 -57 -4 -123q0 -23 0.5 -65t0.5 -61q0 -54 -25 -99 q-27 -47 -84 -68q109 -60 109 -233q0 -15 -1 -31q-1 -21 -1 -39q0 -173 118 -186q0 -178 -2 -209q-34 -4 -66 -4q-116 0 -190 54q-94 69 -90 169q9 40 8 86q0 19 -1 39q-5 68 -22.5 126t-67.5 96q-45 34 -112 35q-7 0 -14 -1q-12 0 -16 2z" />
<glyph unicode="|" horiz-adv-x="360" d="M68 -51v1282v256q41 0 79 -2q26 -1 48 -2q11 0 20 1q29 1 78 9v-2q2 -35 4 -775q1 -370 1 -563.5t-1 -209.5h-18q-156 0 -211 6z" />
<glyph unicode="}" horiz-adv-x="655" d="M59 211q118 13 119 186q0 19 -2 39q-1 16 -1 31q0 173 110 233q-57 20 -84 68q-26 45 -26 99q0 19 0.5 61t0.5 65q0 66 -4 123q-10 55 -106 82q-4 55 -4 98q0 55 6 93q37 2 74 2q62 0 124 -7q76 -10 114 -79q26 -49 26 -105q0 -24 -5 -49q-6 -35 -5 -71q0 -28 3 -57 q8 -65 29 -116t73 -81q41 -23 96 -23q15 0 32 2q11 -71 11 -125q0 -43 -7 -76q-4 -2 -17 -2q-7 0 -14 1q-66 0 -111 -35q-50 -38 -67.5 -96t-23.5 -126q-2 -20 -1 -39q0 -46 9 -86q4 -100 -91 -169q-74 -54 -190 -54q-31 0 -66 4q-2 31 -2 209z" />
<glyph unicode="~" horiz-adv-x="1177" d="M37 279q70 244 160 348q74 74 174 90q23 4 45 4q75 0 143 -43q29 -18 67 -67.5t58 -63.5q33 -29 64 -29q33 0 63 32q59 62 78 138q35 2 221 8l6 -6q7 -30 7 -61q0 -126 -105 -277q-45 -55 -107 -76q-47 -18 -96 -18q-45 0 -91 15q-97 32 -136 122q-42 59 -101 60h-4 q-43 0 -92 -25q-33 -20 -43 -49q-8 -20 -8 -47t8 -60v-2q-29 8 -106 10h-51q-49 0 -91 -1z" />
<glyph unicode="&#xa1;" horiz-adv-x="393" d="M51 1047q6 227 6 245h15q16 0 39.5 -1t38.5 -1h4l153 2q6 -18 6 -44.5t-6 -98.5t-6 -96v-2q-29 -12 -71 -14h-14q-37 0 -84 4q-56 6 -81 6zM53 936q37 4 264 10h2q-1 -38 0 -110q0 -144 3 -430q1 -107 1 -195q0 -263 -10 -354h-6q-12 -2 -56 -6.5t-70 -6.5q-17 -1 -39 -1 h-23q-37 1 -64 10q7 353 7 612q0 296 -9 471z" />
<glyph unicode="&#xa2;" horiz-adv-x="722" d="M50 627q1 49 3 138t2 140q-2 18 -1 36q0 106 64 191q57 76 144 75q27 0 57 -7q4 2 5 58v65q6 10 30 14l14 2q16 0 27 -8v-2v-133h2q139 -4 216 -139q49 -87 50 -173q0 -48 -16 -96v-2q-38 -5 -78 -4q-60 0 -127 11q-4 16 -4 59t-8 72.5t-35 46.5v-549h2q25 10 38.5 32.5 t16.5 43t4 55.5t3 47q8 0 93 2h23q63 0 70 -10v-2q0 -27 5 -83q4 -40 4 -66q0 -10 -1 -19q-12 -88 -85.5 -151.5t-168.5 -77.5h-4v-3q-1 -9 -1 -25.5t1 -40.5q2 -48 -2 -63h-2q-2 -2 -4 -2q-24 -8 -39 -7q-17 0 -22 9q-2 18 -2 37t-1 45.5t-1 46.5q-17 -3 -35 -2 q-66 0 -130 37q-81 47 -94 135q-8 70 -11 144q-2 55 -2 97v26zM262 815q-4 -75 -3 -137q0 -78 5 -135q4 -92 58 -121q2 146 1 262q0 174 -4 283q-18 0 -30.5 -10.5t-17.5 -30t-6 -34.5t-2 -42t-1 -35z" />
<glyph unicode="&#xa3;" horiz-adv-x="956" d="M25 667q-1 5 -1 12t1 17q0 4 2 6q35 14 82 17q16 1 30 1q29 0 55 -3q19 -2 40 -2t45 2h6h10h2q-8 182 -10 405q-1 56 -1 100q0 130 5 148q4 -3 47 -3q22 0 53 1q94 2 139 14v-2l9 -224q6 -167 7 -225v-51q0 -62 -1 -171q131 -7 198 -7q57 0 70 5h2q1 -22 1 -45 q0 -45 -3 -93q-4 -72 -6 -92t6 -43q-70 2 -123 3q-40 0 -70 -2q-71 -3 -77 -3q-6 -18 -2 -48t10 -40q18 -2 193.5 -11t185.5 -11q-4 -94 -8 -176.5t-6.5 -109t-2.5 -32.5h-104q-504 0 -530 19q13 167 12 303q0 60 -2 114q-57 2 -107 2h-73h-43h-27q-8 0 -10 2q0 84 -1 149 t-3 74z" />
<glyph unicode="&#xa5;" horiz-adv-x="1069" d="M46 598q3 82 3 90h4q68 8 194 8t167 2q0 2 -1 2t-1 2q-29 102 -126.5 344t-121.5 371q22 -2 53 -2q39 0 93 3q44 2 79 3q42 0 70 -4q92 -293 127 -368q84 154 162 350q2 2 4 2t4 2q113 15 193 15q54 0 93 -7q-125 -367 -301 -698q15 -12 72 -12h27q18 1 33 1q51 0 67 -8 h2v-2v-93q0 -83 4 -87v-2q-11 5 -61 5q-31 0 -76 -2q-119 -5 -148 -5q-16 -6 -31.5 -45t-21.5 -47l-2 -2h336v-96q0 -85 4 -91q-39 0 -416 -10q-20 -37 -48.5 -114.5t-39.5 -100.5v-2h-2q-17 6 -65 6q-29 0 -71 -2q-66 -4 -107 -4q-27 0 -43 2h-7q2 25 14.5 59.5t31 78.5 t26.5 67q-15 7 -60 6h-24h-16q-53 0 -72 12v2q1 22 1 44v21v21q0 22 1 44q2 34 8 51q18 -1 42 -1q36 0 85 2q82 3 111 3v2q4 8 11 24l13 30l13 26q0 4 2 6v2h-2q-11 1 -27 1q-24 0 -59.5 -2t-68.5 -2q-22 0 -42 1q-51 2 -86 14q-4 1 -4 38q0 19 1 46z" />
<glyph unicode="&#xa6;" horiz-adv-x="1705" />
<glyph unicode="&#xa8;" horiz-adv-x="714" d="M69 1136q0 14 -1 28q0 29 2 61q2 47 2 51q37 14 115 15h11q70 0 97 -13q0 -2 -3 -45t-6 -95.5t-3 -66.5v-2v-2h-4l-199 2h-6q-4 25 -5 67zM425 1136v28q0 29 1 61q2 47 2 51q37 14 116 15h10q70 0 97 -13q0 -2 -3 -45t-6 -95.5t-3 -66.5v-2v-2h-4l-199 2h-6q-4 25 -5 67z " />
<glyph unicode="&#xa9;" horiz-adv-x="1140" d="M63 913q8 96 76 177q84 106 248 131q93 5 166 5q108 0 168 -12q92 -16 170 -65q4 -2 12 -8t12 -8q33 -25 57.5 -58t40 -63.5t22.5 -76.5t11 -78q1 -14 1 -32q0 -24 -3 -56l-6 -85q-2 -29 -10 -90.5t-10 -83.5q-25 -96 -98 -166q-31 -31 -68 -52.5t-87 -31.5t-81 -15 t-95.5 -8.5t-84.5 -5.5q-129 0 -221 29q-188 84 -209 246q-16 110 -17 240q0 80 6 167zM213 903q-6 -46 -6 -121q0 -97 10 -243q-2 -66 61.5 -112t143.5 -50q18 2 130 7t169 15q74 10 116 71.5t50 141.5q9 104 8 187v32q0 4 -1 27t-1 29t-2 24.5t-6 27.5l-10 23 q-6 13 -17 25q-47 63 -168 84q-76 9 -151 9l-152 -9q-2 0 -5 -1t-5 -1q-68 -12 -112 -58.5t-52 -107.5zM363 868q-2 23 10 52q16 45 43 69q8 6 41 21q33 10 63 10q71 0 132 -56.5t61 -127.5q0 -30 -11 -62q-22 -2 -43 -2l-71 6q-2 8 -3 27.5t-3 31t-7.5 24.5t-16.5 19.5 t-30 6.5l-16 -6q-18 -4 -23 -9l-6 -12q-2 -4 -3 -46t-1 -90t2 -87q4 -59 43 -74h10q35 0 52 27l6 78q4 0 53 1t55 -5q9 -29 10 -58q0 -51 -31 -97q-48 -73 -134 -75q-16 -2 -32 -2q-47 0 -87 19q-53 25 -59 86q-5 66 -5 219q0 51 1 112z" />
<glyph unicode="&#xaa;" horiz-adv-x="466" d="M35 682q2 4 9 46l18 107q11 65 27.5 142.5t39.5 171.5t47 176q12 2 18.5 1t33 0t61.5 3q6 -20 21 -86l33 -144q17 -79 22 -95l69 -324q-26 -6 -53 -6q-33 0 -70 8h-2q-20 59 -47 119q-16 2 -57 2q-12 -12 -20.5 -61.5t-16.5 -61.5h-2q-8 -1 -14 -1h-6q-7 1 -41 1h-68z M203 942q10 0 32.5 -1t34.5 -1q-8 41 -13 61.5t-12 38.5q-6 14 -11 15q-1 0 -3 -1q-6 -5 -13 -32t-15 -80z" />
<glyph unicode="&#xab;" horiz-adv-x="1206" d="M25 537q47 57 110 125l150 155l125 127l116 121q23 -14 76 -69.5t80 -71.5q-39 -51 -173 -189.5t-187 -204.5q57 -49 183 -174t195 -182l-22 -20l-33 -33q-43 -43 -104 -98l-2 2q-29 29 -225.5 209t-288.5 303zM477 537q47 57 111 125l149 155l125 127l117 121 q23 -14 76 -69.5t80 -71.5q-39 -51 -173.5 -189.5t-187.5 -204.5q57 -49 183 -174t196 -182l-22 -20l-33 -33q-43 -43 -105 -98l-2 2q-29 29 -225.5 209t-288.5 303z" />
<glyph unicode="&#xad;" horiz-adv-x="1048" d="M63 414q0 272 7 327h907q0 -37 -2 -107.5t-1 -127.5t9 -107h-2q-31 -2 -454 5.5t-464 9.5z" />
<glyph unicode="&#xae;" horiz-adv-x="1130" d="M63 913q8 96 76 177q84 106 248 131q93 5 166 5q108 0 168 -12q92 -16 170 -65q4 -2 12 -8t12 -8q49 -35 79 -89.5t41 -100.5q10 -43 11 -115v-13q-1 -82 -5.5 -122t-16.5 -132q0 -2 -4 -31.5t-8 -44.5q-29 -80 -92 -141q-31 -31 -68 -52.5t-87 -31.5t-81 -15t-95.5 -8.5 t-84.5 -5.5q-129 0 -221 29q-188 84 -209 246q-16 110 -17 240q0 80 6 167zM207 836q-1 -6 -1 -24q0 -55 5 -222q4 -145 104 -187q25 -12 54 -18q29 -4 78 -4q89 0 243 12l31 6q74 10 116 71.5t50 141.5q9 104 8 187v32q0 4 -1 27t-1 29t-2 24.5t-6 27.5l-11 23 q-6 13 -16 25q-47 63 -168 84q-76 9 -151 9l-152 -9q-2 0 -5 -1t-5 -1q-68 -12 -112 -58t-52 -108zM354 1020q101 14 174 14q24 0 45 -2q98 -6 147 -93q24 -43 24 -86q0 -44 -25 -89q-35 -70 -107 -72h-4h-2v-2l49 -74q35 -51 59.5 -92t39.5 -82q-14 0 -61 -3q-28 -2 -48 -2 q-14 0 -24 1h-3q-8 14 -29.5 61.5t-43 85.5t-43.5 62l-2 4q-1 -9 -2 -34q0 -51 6 -168q-16 -6 -50 -8.5t-64 -2.5h-32q4 3 4 122q0 60 -1 149q-3 266 -7 311zM475 852q0 -37 2 -51h2q32 -2 52.5 -2t29.5 2q33 8 38 46q1 7 1 12q0 29 -20 44q-19 14 -47 14q-25 0 -58 -12v-53 z" />
<glyph unicode="&#xb0;" horiz-adv-x="616" d="M63 983q-5 60 -4 107q0 71 11 114q31 102 155 123q4 0 13.5 1t13.5 1q29 2 80 2t84 -10q25 -8 37 -14q33 -12 57 -35q39 -31 49 -96q4 -20 4 -91q0 -199 -125 -243q-16 -6 -41 -11q-54 -10 -103 -9q-68 0 -128 18q-68 33 -90 84q-9 22 -13 59zM180 1018q0 -66 62 -76 q22 -1 41 -1q39 0 69 5q4 0 8.5 1t8.5 1h2q53 8 65 76q4 18 8 63q2 14 2 27q0 38 -18 62q-14 18 -33 24q-36 11 -81 12q-36 0 -78 -8q-43 -14 -54 -61q-2 -14 -2 -125z" />
<glyph unicode="&#xb1;" horiz-adv-x="999" d="M41 23q0 272 6 327h907q0 -37 -2 -107q-1 -47 -1 -89v-39q1 -57 10 -107h-3h-33q-92 0 -420 5q-423 8 -464 10zM76 1077h7q24 0 121 7q118 9 132 14q0 14 4 129l5 59.5t3 40.5l6 37q0 -11 87 -11q25 0 57 1q96 3 132 2h21q1 -25 2 -55q0 -15 -1 -32q-1 -50 -1 -102.5 t4 -64.5q25 -2 125.5 -2t122.5 -6q-2 -45 -2 -155t-6 -142q-6 -4 -117.5 -5t-126.5 -10q1 -8 1 -21q0 -20 -2 -51q-3 -52 -8 -109.5t-5 -68.5v-6v2q0 -8 -75 -8t-152 3q-47 2 -67 2q-13 0 -15 -1v2q-2 2 -2 4q-3 34 -4 78q0 11 1 22v37q0 37 -1 72q0 37 -5 41h-4 q-215 14 -227 21q-2 2 -2 4q1 13 1 35.5t-1 54.5q-2 63 -5 120.5t-3 61.5z" />
<glyph unicode="&#xb2;" horiz-adv-x="524" d="M57 682v4q2 25 2 76t6.5 87t24.5 66q35 39 106.5 82t92.5 60q34 22 34 65v12q-5 52 -49 56q-66 0 -71 -113v-2q-65 -5 -110 -4h-27v2q-7 36 -8 68q0 89 55 147q33 43 125 52q27 3 49 3q57 0 92 -16q82 -39 90 -156q4 -53 4 -84q-6 -59 -50 -95t-105.5 -64.5t-86.5 -57.5 q-23 -51 -10 -57q43 0 116 1t114 1q7 -18 7 -55q0 -15 -1 -33q0 -33 2 -39h-4l-355 -6h-43z" />
<glyph unicode="&#xb3;" horiz-adv-x="495" d="M43 883h2q18 0 58 4t63 2h2q12 -37 54 -53q13 -5 26 -6q26 0 45 24q12 18 8 43t-22 37q-24 19 -59 19q-20 0 -44 -7q-8 8 -8 42q0 10 1 23q2 33 2 50q0 12 -1 16q12 4 51 4t59.5 11.5t20.5 46.5q-3 51 -46 50q-7 0 -15 -1q-57 -10 -74 -55q-23 -2 -123 -3v3q0 78 4 88 q20 70 101 99q50 18 101 18q31 0 63 -7q83 -18 116 -74q13 -20 13 -49q0 -8 -1 -16q2 -70 2 -134q0 -95 -4 -173q-2 -10 -3 -35t-3 -42t-10 -34q-25 -61 -90 -84q-37 -11 -94 -11q-28 0 -62 3q-8 0 -16 3t-18.5 6t-14.5 5q-12 2 -21.5 7.5t-15.5 9.5l-8 6q-23 20 -31 65 q-2 12 -3 45.5t-5 53.5z" />
<glyph unicode="&#xb4;" horiz-adv-x="522" d="M12 1083q29 27 103 104l135 137q61 60 104 93l142 -143l-2 -2q-12 -12 -62.5 -55t-92.5 -83t-52 -59q-45 -4 -99 -4q-27 0 -57 1q-88 3 -119 11z" />
<glyph unicode="&#xb9;" horiz-adv-x="438" d="M31 1004q-6 33 58.5 162.5t80.5 152.5q49 2 98 2l99 -2q4 -58 4 -140t-4 -187q-7 -168 -7 -259v-41v-2q-10 -6 -28 -8q-12 -1 -24 -1h-12q-17 1 -44 3t-35 2v2v42q0 79 5 200q7 156 7 205v2q-4 0 -4 -4l-43 -86l-6 -13l-7 -14q-5 -10 -9 -16h-2h-127z" />
<glyph unicode="&#xba;" horiz-adv-x="520" d="M57 967q-2 33 -2 62q0 139 47 212q4 8 9 10q61 72 141 74h6q82 0 133 -55q53 -57 70 -142q7 -61 6 -93v-15q1 -16 1 -32q0 -107 -48 -201q-52 -102 -160 -101h-12q-29 0 -64 10q-43 16 -69.5 45t-37.5 71t-15.5 72t-4.5 83zM195 1087q-5 -48 -5 -89q0 -62 11 -107 q2 -4 5 -15.5t6 -17.5t9 -13t17 -9q11 -5 19 -5q7 0 13 3q25 8 37 43q6 23 10 88q2 34 3 63q0 99 -27 135q-14 18 -35 18q-10 0 -20 -3q-18 -2 -31 -25q-8 -11 -12 -66z" />
<glyph unicode="&#xbb;" horiz-adv-x="1206" d="M53 174q70 57 196 182t183 174q-53 66 -187 204t-173 190q27 16 80 71.5t75 69.5l117 -121l125 -127l149 -155q63 -68 111 -125q-92 -123 -288.5 -303.5l-225.5 -208.5l-2 -2q-61 55 -104 98l-33 33zM506 174q70 57 195.5 182t183.5 174q-53 66 -187.5 204t-173.5 190 q27 16 80 71.5t76 69.5l117 -121l125 -127l149 -155q63 -68 111 -125q-92 -123 -289 -303.5t-225 -208.5l-2 -2l-105 98l-33 33z" />
<glyph unicode="&#xbc;" horiz-adv-x="1292" d="M49 987q-6 37 67.5 186.5t92.5 172.5q50 2 95 1q68 0 126 -4q5 -53 5 -148q0 -86 -4 -208q-8 -209 -7 -313v-41v-2q-10 -8 -32.5 -11.5t-41 -2.5t-48.5 4.5t-40 3.5v2q-1 33 -1 75q0 84 5 204q8 179 8 229v2q-4 0 -4 -4l-49 -99l-6 -12l-18 -35l-2 -2zM332 2 q49 152 233.5 662t257.5 788q6 -2 30.5 -2t66.5 2q21 1 37 1q49 0 55 -9v-2l-151 -447l-187 -553l-156 -426q-6 -12 -8 -14q-5 -2 -33 -2q-21 0 -55 1q-48 2 -71 2q-15 0 -19 -1zM801 379v2q2 2 6 8q94 154 219 338q2 0 43 1t72 1h49h2q0 -338 4 -356q6 4 29.5 0t27.5 -4 l-6 -156h-2q-10 -4 -26.5 -3t-26.5 -1h-2l-4 -45l-8.5 -93.5t-4.5 -58.5q-6 -6 -153 -6v56v102l2 61q-6 2 -60 2h-98q-43 0 -53 2v2q-11 44 -11 121q1 13 1 27zM954 371l21 -2q23 0 48.5 1t33.5 1h2v2l4 143q0 2 -2 2q-11 0 -82 -110q-6 -8 -12 -21q-11 -14 -13 -16z" />
<glyph unicode="&#xbd;" horiz-adv-x="1300" d="M49 987q-6 37 67.5 186.5t92.5 172.5q50 2 95 1q68 0 126 -4q5 -53 5 -148q0 -86 -4 -208q-8 -209 -7 -313v-41v-2q-10 -8 -32.5 -11.5t-41 -2.5t-48.5 4.5t-40 3.5v2q-1 33 -1 75q0 84 5 204q8 179 8 229v2l-53 -103l-6 -12l-18 -35l-2 -2zM332 2q49 152 233.5 662 t257.5 788q6 -2 30.5 -2t66.5 2q21 1 37 1q49 0 55 -9v-2l-151 -447l-187 -553l-156 -426q-6 -12 -8 -14q-5 -2 -33 -2q-21 0 -55 1q-48 2 -71 2q-15 0 -19 -1zM807 4v2q2 20 2 84t6 100.5t27 69.5q37 43 115.5 90t103.5 68q36 23 35 69v15q-6 57 -54 61q-72 0 -75 -123v-2 q-75 -7 -120 -7q-18 0 -32 1h-2v2q-7 38 -7 72q0 100 58 166q39 49 140 59q28 3 52 3q63 0 101 -19q90 -47 100 -172q3 -40 3 -68v-24q-6 -66 -54.5 -105t-116 -70.5t-94.5 -64.5q-23 -51 -10 -59q27 -1 61 -1t76 1q84 2 115 2q8 -18 8 -99q0 -39 2 -45q0 -2 -4 -2l-389 -4 h-47z" />
<glyph unicode="&#xbe;" horiz-adv-x="1271" d="M35 1118v2q0 82 4 94q25 78 113 112q54 21 108 21q35 0 71 -9q91 -22 126 -81q15 -23 15 -57q0 -8 -1 -16q2 -77 2 -147q0 -105 -4 -193q-4 -92 -16 -119q-29 -70 -103 -94q-44 -13 -98 -13q-33 0 -70 5q-10 2 -29.5 7t-25.5 7q-12 4 -23.5 10t-17.5 12l-8 5 q-29 33 -33 73q-4 16 -6 50t-4 55l2 2q20 0 64 5q31 4 53 4q9 0 16 -1h2q16 -41 60 -59q14 -6 28 -6q27 0 49 26q12 20 8 47t-24 41q-23 19 -66 19q-21 0 -47 -5q-7 6 -7 39q0 13 1 31q3 41 3 59q0 9 -1 13q12 4 55 5t65.5 13t20.5 51q0 43 -32 53q-11 3 -22 3 q-23 0 -46 -14q-35 -19 -47 -48q-22 -2 -135 -2zM311 2q49 152 233.5 662t258.5 788q6 -2 30 -2t66 2q21 1 37 1q49 0 55 -9v-2l-150 -447l-188 -553l-155 -426q-6 -12 -9 -14q-5 -2 -32 -2q-21 0 -56 1q-48 2 -70 2q-16 0 -20 -1zM780 379v2q2 2 6 8q94 154 220 338 q2 0 43 1t71 1h49h2q0 -338 5 -356q6 4 29.5 0t27.5 -4l-6 -156h-2q-10 -4 -26.5 -3t-27.5 -1h-2l-4 -45q-4 -43 -8 -93.5t-4 -58.5q-6 -6 -154 -6v56v102l2 61q-6 2 -60 2h-97q-43 0 -53 2v2q-11 44 -11 121v27zM934 371l20 -2q23 0 48.5 1t33.5 1h2v2l4 143q0 2 -1 2 q-11 0 -83 -110q-6 -8 -12 -21q-10 -14 -12 -16z" />
<glyph unicode="&#xbf;" horiz-adv-x="919" d="M49 215q12 106 96 217q23 33 64 75t59 66q70 94 101 250q9 34 9 56q0 7 -1 14v2q34 5 88 5q18 0 38 -1q40 -1 71.5 -1t54.5 1h2q8 -8 8 -45l-4 -78q-29 -166 -80 -244q-14 -27 -52 -77l-67 -94q-29 -42 -50 -89q-12 -27 -12 -49q0 -18 7 -34q16 -36 72 -56q26 -14 47 -14 q13 0 24 5q31 13 45.5 35.5t35 50.5t42.5 36q48 3 73 3h11q25 -1 83 -4t83 -3v-2q-10 -164 -122.5 -291t-280.5 -135q-25 -2 -50 -3q-159 0 -278.5 105t-119.5 254q0 22 3 45zM383 1018q0 2 3 52t6 111.5t3 75.5v3v2h4l232 -2h6q4 -27 5 -75v-33q0 -33 -1 -70q-2 -54 -2 -60 q-43 -14 -135 -16q-12 0 -22 -1q-74 0 -99 13z" />
<glyph unicode="&#xc0;" horiz-adv-x="946" d="M39 4q0 2 27 155l60 335q34 182 96.5 448t129.5 492q29 4 43 3q7 -1 25.5 -1t48.5 1q59 1 135 7q14 -55 83 -358.5t85 -366.5l154 -717v-2q-52 -11 -110 -11q-77 0 -165 19h-2q-49 133 -106 262q-16 2 -127 6q-27 -27 -45.5 -137t-34.5 -137l-2 -2h-4q-16 -1 -30 -1h-12 q-17 1 -91 3q-37 1 -75.5 1t-78.5 -1q-2 0 -4 2zM139 1735l142 143q43 -33 104 -93l135 -137q74 -77 103 -104q-31 -8 -119 -11q-29 -1 -57 -1q-54 0 -99 4q-10 18 -52 58t-92 83t-63 56zM412 586q135 -6 151 -6q-16 76 -25.5 113.5t-23.5 84.5t-26 51q-3 1 -5 1 q-9 0 -18 -10q-12 -13 -25.5 -73.5t-27.5 -160.5z" />
<glyph unicode="&#xc1;" horiz-adv-x="948" d="M25 4q0 2 26 155l61 335q34 182 96 448t130 492q14 2 39.5 2t84 1t130.5 3q164 -696 319 -1440q-52 -11 -110 -11q-78 0 -166 19q-49 133 -107 262q-16 2 -127 6q-27 -27 -45 -137t-34 -137q-2 -4 -46 -4q-29 0 -75 2q-117 4 -176 4zM291 1544q29 27 102 104l135 137 q61 60 105 93l141 -143l-2 -2q-12 -12 -62.5 -55.5t-92.5 -83.5t-52 -58q-45 -4 -99 -4q-27 0 -56 1q-88 3 -119 11zM397 586q135 -6 152 -6q-16 76 -25.5 113.5t-24 84.5t-25.5 51q-3 1 -5 1q-9 0 -18 -10q-12 -13 -26 -73.5t-28 -160.5z" />
<glyph unicode="&#xc2;" horiz-adv-x="950" d="M33 4q0 2 26 155l61 335q34 182 96.5 448t129.5 492q29 4 43 3q7 -1 25.5 -1t48.5 1q59 1 135 7q14 -55 83 -358.5t85 -366.5l154 -717v-2q-52 -11 -110 -11q-77 0 -165 19h-2q-49 133 -106 262q-16 2 -127 6q-27 -27 -45.5 -137t-34.5 -137q-2 0 -6 -2q-16 -1 -30 -1 h-12q-17 1 -92 3q-37 1 -75 1t-78 -1q-2 0 -4 2zM141 1546q33 43 78 92.5t76 77.5l93 85q62 56 85 79l334 -332q-2 2 -35 -3t-83 -10q-19 -2 -41 -2q-35 0 -77 5q-10 0 -51 47t-53 53q-8 -6 -52 -51t-55 -49h-14q-46 -1 -205 8zM406 586q135 -6 151 -6q-16 76 -25.5 113.5 t-23.5 84.5t-26 51q-3 1 -5 1q-9 0 -18 -10q-12 -13 -25.5 -73.5t-27.5 -160.5z" />
<glyph unicode="&#xc3;" horiz-adv-x="974" d="M43 4q0 2 27 155l60 335q34 182 96.5 448t129.5 492q29 4 43 3q7 -1 25.5 -1t48.5 1q59 1 135 7q14 -55 83 -358.5t85 -366.5l154 -717v-2q-52 -11 -110 -11q-77 0 -165 19h-2q-49 133 -106 262q-16 2 -127 6q-27 -27 -45.5 -137t-34.5 -137l-2 -2h-4q-16 -1 -30 -1h-12 q-17 1 -91 3q-37 1 -75.5 1t-78.5 -1q-2 0 -4 2zM72 1550q57 190 123 265q55 57 133 69q17 3 34 3q58 0 109 -34q23 -14 51.5 -51t44.5 -47q26 -22 50 -22q25 0 48 24q44 47 60 107q4 0 168 6l4 -4v-2q3 -22 3 -44q0 -82 -43 -164q-54 -103 -155 -118q-21 -4 -41 -4 q-44 0 -84 18q-58 27 -83 86q-27 45 -72 48q-78 0 -105 -46l-6 -12q-7 -19 -7 -39.5t7 -42.5v-2q-23 6 -83 7t-109 1zM416 586q135 -6 151 -6q-16 76 -25.5 113.5t-23.5 84.5t-25 51q-3 1 -6 1q-9 0 -18 -10q-12 -13 -25.5 -73.5t-27.5 -160.5z" />
<glyph unicode="&#xc4;" horiz-adv-x="948" d="M33 4q0 2 26 155l61 335q34 182 96.5 448t129.5 492q29 4 43 3q7 -1 25.5 -1t48.5 1q59 1 135 7q14 -55 83 -358.5t85 -366.5l154 -717v-2q-52 -11 -110 -11q-77 0 -165 19h-2q-49 133 -106 262q-16 2 -127 6q-27 -27 -45.5 -137t-34.5 -137q-2 0 -6 -2q-16 -1 -30 -1 h-12q-17 1 -92 3q-37 1 -75 1t-78 -1q-2 0 -4 2zM163 1621q0 14 -1 29q0 29 2 60q2 47 2 51q37 14 116 16h10q70 0 97 -14q0 -2 -3 -45t-6 -95t-3 -67v-2v-2h-4l-199 2h-6q-4 25 -5 67zM406 586q135 -6 151 -6q-16 76 -25.5 113.5t-23.5 84.5t-25.5 51.5t-24 -9t-25.5 -74 t-27 -160.5zM519 1621v29q0 29 1 60q2 47 2 51q37 14 116 16h10q70 0 97 -14q0 -2 -3 -45t-6 -95t-3 -67v-2v-2h-4l-199 2h-6q-4 25 -5 67z" />
<glyph unicode="&#xc5;" horiz-adv-x="950" d="M33 4q0 2 26 155l61 335q34 182 96.5 448t129.5 492q29 4 43 3q7 -1 25.5 -1t48.5 1q59 1 135 7q14 -55 83 -358.5t85 -366.5l154 -717v-2q-52 -11 -110 -11q-77 0 -165 19h-2q-49 133 -106 262q-16 2 -127 6q-27 -27 -45.5 -137t-34.5 -137q-2 0 -6 -2q-16 -1 -30 -1 h-12q-17 1 -92 3q-37 1 -75 1t-78 -1q-2 0 -4 2zM291 1833q6 20 22 41q44 42 130 42q14 0 30 -1q123 -4 162 -60q17 -58 17 -115q0 -75 -29 -149q-29 -45 -123 -49q-31 -4 -66 -4q-23 0 -49 2q-70 4 -92 59q-13 77 -13 138q0 55 11 96zM371 1737q0 -68 20 -90q23 -18 51 -19 h21q78 6 88 31q11 47 10 81v11q-4 29 -14 45q-27 29 -80 29q-33 0 -61 -13q-25 -14 -31 -40q-4 -21 -4 -35zM406 586q135 -6 151 -6q-16 76 -25.5 113.5t-23.5 84.5t-26 51q-3 1 -5 1q-9 0 -18 -10q-12 -13 -25.5 -73.5t-27.5 -160.5z" />
<glyph unicode="&#xc6;" horiz-adv-x="1546" d="M53 -2l31 182q14 84 17 107.5t14 77.5l13 68q3 15 25 109l41 173l68 283l100 421q170 8 444.5 12.5t443.5 5.5h100q87 0 123 -1v-2v-2q4 -41 4 -90.5t-2 -109t-2 -91.5v-4q-82 -18 -228 -18h-45q-36 1 -68 1q-129 0 -206 -10q1 -8 0 -17q0 -24 -3 -59q-4 -41 -5 -77 q0 -7 1 -14q1 -42 13 -73q39 -6 124 -6t124 -6q8 -39 9 -85v-24q0 -38 -2 -84q-3 -62 -3 -92q-33 -8 -92.5 -8t-102.5 -1t-53 -11q-5 -73 -5 -127q0 -100 17 -133h2q76 -4 257.5 -5t271.5 -7v-7q3 -43 3 -84q0 -92 -16 -178l-4 -4q-88 0 -266 -3t-316.5 -3t-256.5 8 q-6 29 -29 106t-29 120v2q-27 0 -39 1t-29.5 2t-72.5 1h-4q-2 -2 -2 -4q-6 -25 -31 -107t-35 -125q0 -2 -2 -2t-4 -2q-27 0 -85 2q-39 1 -73 1h-32q-47 -1 -90 -5q-2 0 -6.5 -1t-6.5 -1zM430 582h2h2q7 2 20 1q19 0 52 -3q17 -2 29 -2q29 0 34 10q-8 51 -37.5 150.5 t-33.5 117.5l-2 6q-54 -149 -66 -280z" />
<glyph unicode="&#xc7;" horiz-adv-x="1005" d="M57 377v20q-3 162 -3 295q0 234 9 381q0 14 3 23q18 193 131 288q54 35 167 36q12 0 25 -1q20 0 39 1q150 0 236 -29q150 -59 218 -228q40 -98 40 -193q0 -68 -21 -134h-2q-2 -2 -4 -2q-37 -9 -97 -10q-71 0 -173 14h-4q-12 27 -15.5 94t-23 114.5t-72.5 57.5q-6 2 -21 2 h-11q-48 0 -82 -32q-38 -36 -42 -91q-6 -144 -6 -265q0 -155 10 -272q23 -123 109 -147q10 -1 19 -1q87 0 122 71q12 25 16.5 57.5t5.5 73.5t3 61q12 0 75 3q37 2 69 2q22 0 41 -1q48 -2 81 -12q20 -75 20 -148q0 -56 -12 -110q-27 -125 -126 -217t-234 -98h-4l-2 2 q-20 -96 -62 -238v-4q-9 1 -22 1q-27 0 -73 -3q-34 -2 -56 -2t-31 2q-2 0 -2 6q0 12 10 53l25 97q14 55 18 86v6q-20 -3 -39 -3q-79 0 -133 49q-68 60 -91.5 146t-27.5 199z" />
<glyph unicode="&#xc8;" horiz-adv-x="964" d="M65 975q1 225 13 436q252 12 543 16q97 1 163 2q132 0 142 -6q6 -41 6 -90t-3 -108.5t-3 -91.5v-3q-88 -21 -239 -20h-28q-42 1 -80 1q-114 0 -190 -5h-6l-2 -2q0 -12 -5 -121q-2 -32 -2 -55q0 -56 9 -64l2 -2l252 -6v-2q8 -6 8 -85q0 -24 -1 -54q-3 -131 -3 -146 q-41 -10 -144.5 -10t-103.5 -12q-8 -44 -8 -108t8 -148l2 -2q74 0 254 -6q135 -5 227 -5q30 0 56 1v-5q2 -45 2 -83q0 -117 -19 -185q-94 0 -267 -3q-130 -2 -242 -2h-72q-141 1 -258 9q0 139 -6 440q-5 257 -6 459q1 34 1 66zM211 1735l141 143q43 -33 105 -93l135 -137 q74 -77 102 -104q-31 -8 -119 -11q-29 -1 -56 -1q-54 0 -99 4q-10 18 -52 58t-92.5 83t-62.5 56z" />
<glyph unicode="&#xc9;" horiz-adv-x="970" d="M56 975q1 225 14 436q252 12 542 16q97 1 163 2q132 0 143 -6q6 -41 6 -90t-3 -108.5t-3 -91.5v-3q-88 -21 -239 -20h-28q-42 1 -80 1q-114 0 -190 -5h-6l-2 -2q0 -12 -5 -121q-2 -32 -2 -55q0 -56 9 -64l2 -2l252 -6v-2q8 -6 8 -85q0 -24 -1 -54q-3 -131 -3 -146 q-41 -10 -144.5 -10t-103.5 -12q-8 -44 -8 -108t8 -148l2 -2q74 0 254 -6q135 -5 227 -5q30 0 56 1v-5q2 -45 2 -83q0 -117 -19 -185q-94 0 -267 -3q-130 -2 -242 -2h-72q-141 1 -258 9q0 139 -7 440q-5 257 -5 459v66zM303 1544q29 27 103 104l135 137q61 60 104 93 l141 -143l-2 -2q-12 -12 -62 -55.5l-92 -83.5t-52 -58q-45 -4 -100 -4q-27 0 -56 1q-88 3 -119 11z" />
<glyph unicode="&#xca;" horiz-adv-x="972" d="M62 975q1 225 14 436q252 12 542 16q97 1 164 2q132 0 142 -6q6 -41 6 -90t-3 -108.5t-3 -91.5v-2q-88 -21 -239 -21h-28q-42 1 -80 1q-114 0 -190 -5h-6l-2 -2q0 -12 -5 -121q-2 -32 -2 -55q0 -56 9 -64l2 -2l252 -6v-2q8 -6 8 -85q0 -24 -1 -54q-3 -131 -3 -146 q-41 -10 -144.5 -10t-103.5 -12q-8 -44 -8 -108t8 -148l2 -2q74 0 254 -6q135 -5 227 -5q30 0 56 1v-5q2 -45 2 -83q0 -117 -19 -185q-94 0 -267 -3q-130 -2 -242 -2h-72q-141 1 -258 9q0 139 -6 440q-5 257 -6 459v66zM166 1546q33 43 78 92.5t75 77.5l94 85q62 56 85 79 l333 -332q-2 2 -34.5 -3t-82.5 -10q-19 -2 -41 -2q-35 0 -77 5q-10 0 -51 47t-53 53q-8 -6 -52.5 -51t-54.5 -49h-14q-46 -1 -205 8z" />
<glyph unicode="&#xcb;" horiz-adv-x="976" d="M67 975q1 225 13 436q252 12 543 16q97 1 163 2q132 0 142 -6q6 -41 6 -90t-3 -108.5t-3 -91.5v-3q-88 -21 -239 -20h-27q-42 1 -81 1q-114 0 -190 -5h-6l-2 -2q0 -12 -5 -121q-2 -32 -2 -55q0 -56 9 -64l2 -2l252 -6v-2q8 -6 8 -85q0 -24 -1 -54q-3 -131 -3 -146 q-41 -10 -144.5 -10t-103.5 -12q-8 -44 -8 -108t8 -148l2 -2q74 0 254 -6q135 -5 227 -5q30 0 56 1v-5q2 -45 2 -83q0 -117 -18 -185q-94 0 -268 -3q-130 -2 -242 -2h-72q-141 1 -258 9q0 139 -6 440q-5 257 -6 459q1 34 1 66zM202 1621q0 14 -1 29q0 29 2 60q2 47 2 51 q37 14 116 16h10q70 0 97 -14q0 -2 -3 -45t-6 -95t-3 -67v-2v-2h-4l-199 2h-6q-4 25 -5 67zM558 1621v29q0 29 1 60q2 47 2 51q37 14 116 16h10q70 0 97 -14q0 -2 -3 -45t-6 -95t-3 -67v-2v-2h-4l-199 2h-6q-4 25 -5 67z" />
<glyph unicode="&#xcc;" horiz-adv-x="559" d="M25 1735l141 143q43 -33 104 -93l136 -137q74 -77 102 -104q-31 -8 -119 -11q-29 -1 -56 -1q-54 0 -100 4q-10 18 -52 58t-92 83t-62 56zM137 -8q12 136 12 358q0 167 -7 382q-6 184 -5 329q0 251 17 385v4q3 1 10 1q11 0 33 -2q35 -3 41 -3q170 -6 225 -6h49v-8 q0 -147 -7 -473t-7 -476.5t12 -472.5q-7 -22 -123 -21q-27 0 -59 1q-104 4 -152 3q-32 1 -39 -1z" />
<glyph unicode="&#xcd;" horiz-adv-x="616" d="M70 -8q12 136 11 358q0 167 -6 382q-6 184 -6 329q0 251 17 385v4q8 2 43 -1t41 -3q170 -6 225 -6h49v-8q0 -147 -7 -473t-7 -476.5t12 -472.5q-7 -22 -122 -21q-27 0 -60 1q-104 4 -152 3q-31 1 -38 -1zM111 1544q29 27 102 104l135 137q61 60 105 93l141 -143l-2 -2 q-12 -12 -62.5 -55.5t-92.5 -83.5t-52 -58q-45 -4 -99 -4q-27 0 -57 1q-87 3 -118 11z" />
<glyph unicode="&#xce;" horiz-adv-x="712" d="M29 1546q33 43 78 92.5t75 77.5l93 85q62 56 85 79l334 -332q-2 2 -34.5 -3t-82.5 -10q-19 -2 -42 -2q-35 0 -76 5q-10 0 -51 47t-54 53q-8 -6 -52 -51t-54 -49h-14q-46 -1 -205 8zM145 -8q12 136 12 358q0 167 -6 382q-6 184 -6 329q0 251 17 385v4q3 1 11 1q11 0 32 -2 q35 -3 41 -3q170 -6 225 -6h49v-8q0 -147 -7 -473t-7 -476.5t12 -472.5q-7 -22 -123 -21q-27 0 -59 1q-104 4 -152 3q-32 1 -39 -1z" />
<glyph unicode="&#xcf;" horiz-adv-x="647" d="M40 1621v29q0 29 1 60q2 47 2 51q37 14 116 16h10q70 0 97 -14q0 -2 -3 -45t-6 -95t-3 -67v-2v-2h-4l-199 2h-6q-4 25 -5 67zM121 -8q12 136 12 358q0 167 -7 382q-6 184 -6 329q0 251 17 385v4q8 2 43 -1t41 -3q170 -6 225 -6h50v-8q0 -147 -7.5 -473t-7.5 -476.5 t13 -472.5q-7 -22 -123 -21q-27 0 -60 1q-104 4 -152 3q-31 1 -38 -1zM396 1621v29q0 29 1 60q2 47 2 51q37 14 116 16h10q70 0 98 -14q0 -2 -3.5 -45t-6.5 -95t-3 -67v-2v-2h-4l-198 2h-7q-4 25 -5 67z" />
<glyph unicode="&#xd1;" horiz-adv-x="1026" d="M72 979q2 242 18 444q40 14 100 14q20 0 42 -1q89 -6 157 -27v-2q6 -25 47 -97.5t114 -191.5t89 -147q6 25 6 80q0 51 -5 127q-5 70 -5 126q0 72 8 121v7q66 14 178.5 14t141.5 -8l-2 -656q2 -115 2 -376t4 -371l-2 -29q-10 -20 -70 -21h-15q-52 0 -107 6q-29 3 -55 3 q-29 0 -54 -4h-2q-104 231 -246 612q-14 -227 -14 -419q0 -96 4 -183l-3 -2q-18 -9 -63 -9q-37 0 -92 6q-76 8 -122 8q-28 0 -46 -3l-2 2q1 46 0 103q0 141 -3.5 345.5t-3.5 386.5q0 73 1 142zM113 1546q57 190 123 264q55 57 133 70q17 3 34 3q58 0 109 -34 q23 -14 51.5 -51t44.5 -47q26 -22 50 -22q25 0 48 24q44 47 60 107q4 0 168 6l4 -4q6 -24 6 -50q0 -96 -80 -210q-37 -43 -82 -58q-36 -14 -74 -14q-34 0 -69 11q-76 24 -104 93q-31 47 -80 47q-25 0 -72 -18q-23 -20 -31 -39q-7 -19 -7 -39.5t7 -42.5v-2q-23 6 -83 7 t-109 1z" />
<glyph unicode="&#xd2;" d="M61 997q4 229 109 351q20 20 47 36q118 61 264 62q19 0 39 -1q170 -9 289 -97q59 -53 84 -125q20 -47 33 -127q5 -56 5 -128q0 -36 -1 -75q-4 -68 -4 -207t-6 -213l-7 -67q-6 -162 -77 -277q-63 -90 -211 -125q-83 -23 -173 -23q-30 0 -61 3q-100 8 -168.5 38.5 t-101.5 104.5q-45 84 -49 227q-13 340 -13 518q-1 78 2 125zM131 1735l141 143q43 -33 105 -93l135 -137q74 -77 102 -104q-31 -8 -118 -11q-29 -1 -57 -1q-54 0 -99 4q-10 18 -52 58t-92.5 83t-62.5 56zM281 647q4 -31 9 -91t11 -108.5t18 -89.5q39 -82 144 -90 q11 -1 21 -1q90 0 145 65q18 23 26.5 41t10.5 30.5t2 48t2 66.5q0 20 1 49t2 42.5t1 15.5v98l-4 139l-2 19q-2 20 -4 49q-2 28 -2 49q-10 127 -107 174q-28 10 -55 11q-53 0 -105 -40q-72 -55 -96 -141q-21 -107 -21 -239q0 -47 3 -97z" />
<glyph unicode="&#xd3;" d="M49 997q4 229 109 351q20 20 47 36q118 61 264 62q19 0 39 -1q170 -9 289 -97q59 -53 84 -125q20 -47 32 -127q5 -56 6 -128q0 -36 -1 -75q-4 -68 -4.5 -207t-6.5 -213l-6 -67q-6 -162 -78 -277q-63 -90 -211 -125q-83 -23 -172 -23q-30 0 -61 3q-100 8 -169 38.5 t-101 104.5q-45 84 -50 227q-13 340 -12 518q-1 78 2 125zM268 647q4 -31 9.5 -91t11.5 -108.5t18 -89.5q39 -82 144 -90q11 -1 21 -1q90 0 144 65q18 23 26.5 41t10.5 30.5t2 48t2 66.5q0 20 1 49t2.5 42.5t1.5 15.5v98l-5 139l-2 19q-2 20 -4 48.5t-2 49.5 q-10 127 -106 174q-28 10 -56 11q-53 0 -104 -40q-72 -55 -96 -141q-21 -107 -21 -239q-1 -47 2 -97zM324 1544q29 27 102 104l135 137q61 60 105 93l141 -143l-2 -2q-12 -12 -62.5 -55.5t-92.5 -83.5t-52 -58q-45 -4 -99 -4q-27 0 -57 1q-87 3 -118 11z" />
<glyph unicode="&#xd4;" horiz-adv-x="970" d="M55 997q4 229 109 351q20 20 47 36q118 61 264 62q19 0 39 -1q170 -9 289 -97q59 -53 84 -125q20 -47 33 -127q5 -56 5 -128q0 -36 -1 -75q-4 -68 -4 -207t-7 -213l-6 -67q-6 -162 -78 -277q-63 -90 -211 -125q-83 -23 -172 -23q-30 0 -61 3q-100 8 -169 38.5t-101 104.5 q-45 84 -49 227q-13 340 -13 518q-1 78 2 125zM166 1546q33 43 78 92.5t75 77.5l94 85q62 56 85 79l333 -332q-2 2 -34.5 -3t-82.5 -10q-19 -2 -41 -2q-35 0 -77 5q-10 0 -51 47t-53 53q-8 -6 -52.5 -51t-54.5 -49h-14q-46 -1 -205 8zM274 647q4 -31 9.5 -91t11.5 -108.5 t18 -89.5q39 -82 144 -90q11 -1 21 -1q90 0 145 65q18 23 26 41t10.5 30.5t2.5 48t2 66.5q0 20 1 49t2 42.5t1 15.5v98l-4 139l-2 19q-2 20 -4.5 48.5t-2.5 49.5q-10 127 -106 174q-28 10 -56 11q-53 0 -104 -40q-72 -55 -96 -141q-21 -107 -21 -239q-1 -47 2 -97z" />
<glyph unicode="&#xd5;" horiz-adv-x="987" d="M63 997q4 229 109 351q20 20 47 36q118 61 264 62q19 0 39 -1q170 -9 289 -97q59 -53 84 -125q20 -47 33 -127q5 -56 5 -128q0 -36 -1 -75q-4 -68 -4 -207t-6 -213l-7 -67q-6 -162 -77 -277q-63 -90 -211 -125q-83 -23 -173 -23q-30 0 -61 3q-100 8 -168.5 38.5 t-101.5 104.5q-45 84 -49 227q-13 340 -13 518q-1 78 2 125zM80 1528q57 190 123 264q55 57 133 70q17 3 34 2q58 0 109 -33q23 -14 51.5 -51t44.5 -47q26 -22 50 -22q25 0 48 24q44 47 60 106q4 0 168 6l4 -4q6 -24 6 -49q0 -96 -80 -211q-37 -43 -81 -57q-36 -14 -74 -14 q-34 0 -70 11q-76 24 -104 93q-31 47 -80 47q-25 0 -72 -18q-23 -20 -31 -39q-7 -19 -7 -40t7 -42v-2q-23 6 -82 7h-39q-38 0 -71 -1h-47zM283 647q4 -31 9 -91t11 -108.5t19 -89.5q39 -82 143 -90q11 -1 21 -1q90 0 145 65q18 23 26.5 41t10.5 30.5t2 48t2 66.5q0 20 1 49 t2 42.5t1 15.5v98l-4 139l-2 19q-2 20 -4 48.5t-2 49.5q-10 127 -107 174q-28 10 -55 11q-53 0 -105 -40q-72 -55 -96 -141q-21 -107 -21 -239q0 -47 3 -97z" />
<glyph unicode="&#xd6;" horiz-adv-x="976" d="M59 997q4 229 109 351q20 20 47 36q118 61 264 62q19 0 39 -1q170 -9 289 -97q59 -53 84 -125q20 -47 33 -127q5 -56 5 -128q0 -36 -1 -75q-4 -68 -4 -207t-6 -213l-7 -67q-6 -162 -77 -277q-63 -90 -211 -125q-83 -23 -173 -23q-30 0 -61 3q-100 8 -168.5 38.5 t-101.5 104.5q-45 84 -49 227q-13 340 -13 518q-1 78 2 125zM208 1621v29q0 29 1 60q2 47 2 51q37 14 116 16h10q70 0 97 -14q0 -2 -3 -45t-6 -95t-3 -67v-2v-2h-4l-199 2h-6q-4 25 -5 67zM279 647q4 -31 9 -91t11 -108.5t18 -89.5q39 -82 144 -90q11 -1 21 -1q90 0 145 65 q18 23 26.5 41t10.5 30.5t2 48t2 66.5q0 20 1 49t2 42.5t1 15.5v98l-4 139l-2 19q-2 20 -4.5 48.5t-2.5 49.5q-10 127 -106 174q-28 10 -55 11q-53 0 -105 -40q-72 -55 -96 -141q-21 -107 -21 -239q0 -47 3 -97zM564 1621v29q0 29 1 60q2 47 2 51q37 14 116 16h10 q70 0 98 -14q0 -2 -3.5 -45t-6.5 -95t-3 -67v-2v-2h-4l-199 2h-6q-4 25 -5 67z" />
<glyph unicode="&#xd8;" horiz-adv-x="987" d="M70 -43q-1 3 -2 9q0 36 55 171q0 2 1 2t1 2t-1 2t-1 2q-61 240 -61 567q0 115 8 240q2 25 5 92.5t11 114.5t29 88q33 72 82 121l6 6q85 68 257 68q52 0 111 -6q4 2 6.5 23.5t14.5 21.5h2q29 -4 59 -4q20 0 40 2q40 3 83 3h21q53 -1 73 -16q0 -25 -20.5 -72.5t-15.5 -72.5 q70 -80 86 -185q10 -65 10 -144q0 -49 -4 -103v-120q0 -95 -2 -134t-5.5 -115t-10.5 -134t-17 -118q-25 -111 -104.5 -181.5t-190.5 -80.5q-37 -4 -115 -5t-110 -5h-2h-2q0 -10 -27 -31l-2 -2h2q-3 -7 -81 -6h-44q-60 1 -96.5 1t-48.5 -1zM291 571l90.5 272.5t99.5 307.5v2 h-2h-14q-41 -4 -82 -36t-57 -73q-6 -43 -12.5 -130t-12.5 -130l-6 -47q-7 -87 -7 -129q0 -29 3 -37zM471 268l2 -2h2q152 33 178 117q20 82 22 162v20q0 69 -6 135q-7 76 -8 101v8q-31 -78 -97 -271z" />
<glyph unicode="&#xd9;" horiz-adv-x="985" d="M49 301q0 143 5 517q4 267 4 445q0 71 -1 128l-2 2h2q12 0 66 2l82 3h12q25 0 58 -3q42 -4 71 -13v-2q-8 -176 -8 -353q0 -323 27 -652q18 -63 75 -85q25 -9 50 -10q31 0 61 16q53 28 65 89q8 186 12.5 534.5t6.5 456.5q16 0 66.5 5t85.5 9q15 1 33 1q22 0 47 -2 q44 -4 67 -17v-2q10 -206 10 -398q0 -356 -35 -663q-18 -139 -105 -231t-231 -107q-35 -4 -68 -3q-85 0 -168 22q-116 31 -200 111.5t-88 199.5zM168 1735l141 143q43 -33 105 -93l135 -137q74 -77 102 -104q-31 -8 -119 -11q-29 -1 -56 -1q-54 0 -99 4q-10 18 -52 58 t-92.5 83t-62.5 56z" />
<glyph unicode="&#xda;" horiz-adv-x="987" d="M39 301q0 143 5 517q4 267 4 445q0 71 -1 128l-2 2h2q12 0 66 2l82 3h12q25 0 58 -3q42 -4 71 -13v-2q-8 -176 -8 -353q0 -323 26 -652q18 -63 76 -85q25 -9 49 -10q31 0 62 16q53 28 65 89q8 186 12.5 534.5t6.5 456.5q16 0 66 5t86 9q15 1 32 1q22 0 48 -2 q44 -4 67 -17v-2q10 -206 10 -398q0 -356 -35 -663q-18 -139 -105 -231t-231 -107q-35 -4 -68 -3q-85 0 -168 22q-116 31 -200 111.5t-88 199.5zM338 1544q29 27 102 104l135 137q61 60 105 93l141 -143l-2 -2q-12 -12 -62 -55.5l-92 -83.5t-53 -58q-45 -4 -99 -4 q-27 0 -56 1q-88 3 -119 11z" />
<glyph unicode="&#xdb;" horiz-adv-x="991" d="M47 301q0 143 5 517q4 267 4 445q0 71 -1 128l-2 2h2q12 0 66 2l82 3h12q25 0 58 -3q42 -4 71 -13v-2q-8 -176 -8 -353q0 -323 26 -652q18 -63 76 -85q25 -9 50 -10q31 0 61 16q53 28 65 89q8 186 12.5 534.5t6.5 456.5q16 0 66.5 5.5t85.5 8.5q15 1 33 1q22 0 47 -2 q44 -4 67 -17v-2q10 -206 10 -398q0 -356 -35 -663q-18 -139 -105 -231t-231 -107q-35 -4 -68 -3q-85 0 -168 22q-116 31 -200 111.5t-88 199.5zM147 1546q33 43 78 92.5t76 77.5l93 85q62 56 85 79l334 -332q-2 2 -35 -3t-83 -10q-19 -2 -41 -2q-35 0 -76 5q-10 0 -51.5 47 t-53.5 53q-8 -6 -52 -51t-54 -49h-14q-47 -1 -206 8z" />
<glyph unicode="&#xdc;" horiz-adv-x="995" d="M49 301q0 143 5 517q4 267 4 445q0 71 -1 128l-2 2h2q12 0 66 2l82 3h12q25 0 58 -3q42 -4 71 -13v-2q-8 -176 -8 -353q0 -323 27 -652q18 -63 75 -85q25 -9 50 -10q31 0 61 16q53 28 65 89q8 186 12.5 534.5t6.5 456.5q16 0 66.5 5.5t85.5 8.5q15 1 33 1q22 0 47 -2 q44 -4 67 -17v-2q10 -206 10 -398q0 -356 -35 -663q-18 -139 -105 -231t-231 -107q-35 -4 -68 -3q-85 0 -168 22q-116 31 -200 111.5t-88 199.5zM198 1621q0 14 -1 29q0 29 2 60q2 47 2 51q37 14 115 16h11q70 0 97 -14q0 -2 -3 -45t-6 -95t-3 -67v-2v-2h-4l-199 2h-6 q-4 25 -5 67zM554 1621v29q0 29 1 60q2 47 2 51q37 14 116 16h10q70 0 97 -14q0 -2 -3 -45t-6 -95t-3 -67v-2v-2h-4l-199 2h-6q-4 25 -5 67z" />
<glyph unicode="&#xdd;" horiz-adv-x="931" d="M25 -4q45 141 266 704v5q-29 123 -128.5 357t-127.5 347q25 0 94 6q60 5 109 5h16q55 -1 92 -15q51 -215 121 -354q59 109 162 350q2 2 4 2q117 16 196 16q55 0 91 -8v-2q-80 -254 -302.5 -719t-298.5 -692q-18 2 -53 2t-87 -2q-69 -3 -113 -3q-22 0 -37 1h-4zM307 1544 q29 27 103 104l135 137q61 60 104 93l142 -143l-3 -2q-12 -12 -62 -55.5l-92 -83.5t-52 -58q-45 -4 -100 -4q-27 0 -56 1q-88 3 -119 11z" />
<glyph unicode="&#xe0;" horiz-adv-x="681" d="M41 6q0 4 12 73l30 167q17 98 41.5 220t60.5 267.5t75 274.5q20 2 29.5 1t51.5 0t95 5q10 -39 60 -252l59 -256l106 -502q-38 -8 -80 -8q-52 0 -112 12q-49 127 -76 185q-23 2 -36 3t-21 0t-31 1q-20 -18 -32.5 -96t-24.5 -97h-4q-6 -2 -30 -2t-65 2q-20 1 -46.5 1 t-59.5 -1zM109 1249l96 105q31 -23 74 -66l94 -95l71 -73q-23 -6 -82 -9q-20 -1 -38 -1q-37 0 -68 4q-10 14 -40 41l-64 56q-35 30 -43 38zM301 414q66 -4 107 -4l-22 94q-7 31 -19 60q-10 23 -18 23q-2 0 -4 -1q-9 -8 -20.5 -48t-23.5 -124z" />
<glyph unicode="&#xe1;" horiz-adv-x="677" d="M23 6q0 4 12 73l30 167q17 98 41.5 220t60.5 267.5t75 274.5q20 2 29.5 1t51.5 0t95 5q10 -39 59 -252l60 -256l106 -502q-38 -8 -80 -8q-52 0 -112 12q-49 127 -76 185q-23 2 -36 3t-21.5 0t-30.5 1q-20 -18 -32.5 -96t-25.5 -97h-4q-6 -2 -29.5 -2t-64.5 2q-20 1 -47 1 t-59 -1zM205 1120l71 73l95 95q43 43 73 66l97 -105q-8 -8 -43 -38l-65 -56q-30 -27 -40 -41q-31 -4 -68 -4q-18 0 -38 1q-59 3 -82 9zM283 414q66 -4 106 -4l-21 94q-7 31 -20 60q-10 24 -17 24q-2 0 -4 -2q-9 -8 -20.5 -48t-23.5 -124z" />
<glyph unicode="&#xe2;" horiz-adv-x="679" d="M31 6q0 4 12 73l30 167q17 98 41.5 220t60.5 267.5t75 274.5q20 2 29.5 1t51.5 0t95 5q10 -39 59 -252l60 -256l106 -502q-38 -8 -80 -8q-52 0 -112 12q-49 127 -76 185q-23 2 -36 3t-21.5 0t-30.5 1q-20 -18 -32.5 -96t-24.5 -97h-5q-6 -2 -29.5 -2t-64.5 2 q-20 1 -46.5 1t-59.5 -1zM137 1122q41 55 203 203l205 -203q-2 2 -22.5 -2t-51.5 -6q-8 -1 -16 0q-25 0 -56 4q-4 0 -15 12l-26 27q-14 14 -22 21l-31 -31q-27 -27 -33 -29q-4 -1 -14 0q-32 -1 -121 4zM291 414q66 -4 106 -4l-21 94q-7 31 -20 60q-10 24 -17 24q-2 0 -4 -2 q-9 -8 -20.5 -48t-23.5 -124z" />
<glyph unicode="&#xe3;" horiz-adv-x="706" d="M43 6q0 4 12 73l30 167q17 98 42 220t60.5 267.5t74.5 274.5q20 2 29.5 1t51.5 0t95 5q10 -39 60 -252l59 -256l107 -502q-38 -8 -81 -8q-52 0 -112 12q-49 127 -76 185q-23 2 -36 3t-21 0t-31 1q-20 -18 -32.5 -96t-24.5 -97h-4q-6 -2 -29.5 -2t-64.5 2q-20 1 -47 1 t-60 -1zM76 1104q35 117 78 168q37 37 87 46q13 2 25 2q36 0 66 -20q16 -10 34.5 -34.5t30.5 -32.5q15 -13 29 -13q15 0 30 16q28 30 42 69q35 4 106 4l4 -2v-2q2 -12 2 -25q0 -53 -28 -108q-35 -67 -101 -76q-11 -2 -22 -2q-29 0 -58 12q-39 16 -53 53q-23 33 -47 33 q-47 0 -68 -33q0 -4 -4 -4q-8 -27 0 -53v-2q-14 4 -53 5t-70 1zM303 414q66 -4 107 -4l-22 94q-7 31 -19 60q-10 24 -18 24q-2 0 -4 -2q-9 -8 -20.5 -48t-23.5 -124z" />
<glyph unicode="&#xe4;" horiz-adv-x="684" d="M33 6q0 4 12 73l30 167q17 98 41.5 220t60.5 267.5t75 274.5q20 2 29.5 1t51.5 0t95 5q10 -39 59 -252l60 -256l106 -502q-38 -8 -80 -8q-52 0 -112 12q-49 127 -76 185q-23 2 -36 3t-21.5 0t-30.5 1q-20 -18 -32.5 -96t-24.5 -97h-4q-6 -2 -30 -2t-65 2q-20 1 -46.5 1 t-59.5 -1zM137 1274q27 10 83 11h10q48 0 67 -9q0 -14 -10 -148v-2h-2l-142 2h-4q-2 11 -2 146zM293 414q66 -4 106 -4l-21 94q-7 31 -19.5 60.5t-21.5 21.5t-20.5 -48t-23.5 -124zM391 1274q27 10 83 11h10q48 0 67 -9l-2 -31l-4 -68q-2 -36 -2 -49v-2h-4l-142 2h-4 q-2 11 -2 146z" />
<glyph unicode="&#xe5;" horiz-adv-x="684" d="M33 6q0 4 12 73l30 167q17 98 41.5 220t60.5 267.5t75 274.5q20 2 29.5 1t51.5 0t95 5q10 -39 59 -252l60 -256l106 -502q-38 -8 -80 -8q-52 0 -112 12q-49 127 -76 185q-23 2 -36 3t-21.5 0t-30.5 1q-20 -18 -32.5 -96t-24.5 -97h-4q-6 -2 -30 -2t-65 2q-20 1 -46.5 1 t-59.5 -1zM203 1315q8 20 18 31q32 32 92 32q13 0 27 -2q92 -4 121 -45q14 -44 13 -88q0 -55 -21 -108q-23 -37 -93 -37q-23 -4 -49 -4q-18 0 -37 2q-53 4 -69 45q-9 59 -9 104q0 40 7 70zM264 1243q0 -51 15 -67q14 -14 38 -15h15q59 4 67 23q7 34 7 58q0 6 -1 11 q0 18 -10 35q-18 20 -59 21q-29 0 -47 -9q-16 -10 -23 -30q-2 -9 -2 -27zM293 414q66 -4 106 -4l-21 94q-7 31 -20 60q-10 24 -17 24q-2 0 -4 -2q-9 -8 -20.5 -48t-23.5 -124z" />
<glyph unicode="&#xe6;" horiz-adv-x="1103" d="M49 -4l35 199q14 92 86 399l92 387q182 8 474 11q125 1 198 2q97 0 100 -3v-203v-2q-59 -13 -161 -12h-30q-25 0 -48 1q-90 0 -144 -7q1 -7 1 -22q0 -23 -2 -65q-1 -19 -1 -34q0 -40 6 -51q29 -2 89 -2h87q6 -27 8 -59v-24q0 -25 -1 -55q-2 -46 -2 -65q-23 -2 -66 -2 t-73.5 -1t-37.5 -5q-4 -54 -3 -93q0 -70 12 -91h2q57 -2 183 -3t187 -6v-2q1 -24 1 -45q0 -78 -11 -139l-2 -4q-57 0 -183 -2q-84 -1 -155 -1h-67q-96 1 -181 5q-4 27 -17 80t-17 82l-103 4h-2q-2 -2 -2 -4l-22 -79q-16 -56 -23 -85l-4 -4h-195h-8zM311 395h2q12 4 50 2 t49 4q-6 35 -28 104.5t-26 86.5v2q-39 -101 -47 -199z" />
<glyph unicode="&#xe7;" horiz-adv-x="729" d="M55 268v15q-3 102 -3 199q0 145 7 276q0 10 2 14q14 139 93 205q37 27 133 27q137 0 194 -23q106 -41 155 -160q29 -71 29 -139q0 -47 -14 -92l-4 -2q-30 -6 -70 -6q-52 0 -120 10h-4q-8 18 -10.5 66.5t-15.5 80t-52 39.5q-6 2 -17 2h-6q-35 0 -57 -22q-25 -25 -29 -62 q-6 -112 -5 -201q0 -105 7 -180q16 -86 76 -102q9 -1 17 -1q58 0 83 50q8 18 11.5 40t4.5 50.5t3 44.5q8 0 52 2q29 1 54 2q12 0 23 -1q33 -1 57 -9q16 -51 16 -101q0 -85 -47 -166q-74 -128 -219 -136h-2q-16 -66 -45 -168v-2q-20 0 -64 -2q-22 -1 -38 -1t-25 1l-2 4 q0 8 7 38l17 68q9 39 13 62v4q-16 -2 -31 -2q-82 0 -121 67q-47 80 -53 211z" />
<glyph unicode="&#xe8;" horiz-adv-x="696" d="M60 679q1 161 10 308q170 8 380 11q70 1 117 1q94 0 97 -4q4 -29 4 -63.5t-2 -76.5t-2 -64q-60 -15 -162 -15h-26q-30 1 -57 1q-80 0 -132 -5h-4h-2q0 -12 -3 -86q-1 -20 -1 -35q0 -41 6 -47l2 -2q33 -2 94 -3t82 -1v-2q4 -29 5 -60v-23q0 -23 -1 -51q-2 -42 -2 -65 q-25 -6 -65 -7t-69.5 -1t-37.5 -8q-5 -30 -5 -74.5t5 -103.5v-2q47 0 175 -4q85 -3 146 -3q31 0 56 1v-5q1 -26 0 -49q0 -93 -13 -137q-59 0 -185 -3q-94 -2 -173 -2h-50q-97 1 -179 7q0 106 -5 309q-3 162 -3 298v66zM141 1260l97 104q31 -23 73 -66l95 -95l71 -73 q-23 -6 -82 -9q-20 -1 -38 -1q-37 0 -68 4q-10 14 -40 41l-65 57q-35 30 -43 38z" />
<glyph unicode="&#xe9;" horiz-adv-x="700" d="M48 679q1 161 9 308q170 8 380 11q70 1 117 1q94 0 97 -4q4 -29 4 -63.5t-2 -76.5t-2 -64q-60 -15 -161 -15h-26q-30 1 -57 1q-80 0 -133 -5h-4h-2q0 -12 -3 -86q-1 -20 -1 -35q0 -41 6 -47l2 -2q33 -2 94.5 -3t82.5 -1v-2q4 -29 5 -60v-23q0 -23 -1 -51q-2 -42 -2 -65 q-25 -6 -65 -7t-69.5 -1t-37.5 -8q-5 -30 -5.5 -74.5t5.5 -103.5v-2q47 0 175 -4q85 -3 146 -3q31 0 55 1v-5q1 -26 1 -49q0 -93 -13 -137q-59 0 -185 -3q-94 -2 -173 -2h-50q-97 1 -180 7q0 106 -4 309q-3 162 -3 298v66zM242 1120l71 73l95 95q43 43 73 66l97 -105 q-8 -8 -43 -38l-65 -56q-30 -27 -40 -41q-31 -4 -68 -4q-18 0 -38 1q-59 3 -82 9z" />
<glyph unicode="&#xea;" horiz-adv-x="702" d="M56 679q1 161 10 308q170 8 379 11q70 1 118 1q94 0 96 -4q4 -29 4.5 -63.5t-2 -76.5t-2.5 -64q-60 -15 -161 -15h-26q-30 1 -57 1q-80 0 -132 -5h-4h-3q0 -12 -3 -86q-1 -20 0 -35q0 -41 6 -47l2 -2q33 -2 94 -3t82 -1v-2q4 -29 5 -60v-23q0 -23 -1 -51q-2 -42 -2 -65 q-25 -6 -65 -7t-69.5 -1t-37.5 -8q-5 -30 -5 -74.5t5 -103.5v-2q47 0 175 -4q85 -3 146 -3q31 0 56 1v-5q1 -26 0 -49q0 -93 -13 -137q-59 0 -185 -3q-94 -2 -173 -2h-50q-97 1 -180 7q0 106 -4 309q-3 162 -3 298v66zM164 1122q41 55 203 203l204 -203q-2 2 -22.5 -2 t-50.5 -6q-8 -1 -16 0q-25 0 -56 4q-4 0 -15 12l-26 27q-14 14 -22 21l-31 -31q-27 -27 -33 -29q-4 -1 -15 0q-31 -1 -120 4z" />
<glyph unicode="&#xeb;" horiz-adv-x="710" d="M60 679q1 161 10 308q170 8 380 11q70 1 117 1q94 0 97 -4q4 -29 4 -63.5t-2 -76.5t-2 -64q-60 -15 -162 -15h-26q-30 1 -57 1q-80 0 -132 -5h-4h-2q0 -12 -3 -86q-1 -20 -1 -35q0 -41 6 -47l2 -2q33 -2 94 -3t82 -1v-2q4 -29 5 -60v-23q0 -23 -1 -51q-2 -42 -2 -65 q-25 -6 -65 -7t-69.5 -1t-37.5 -8q-5 -30 -5 -74.5t5 -103.5v-2q47 0 175 -4q85 -3 146 -3q31 0 56 1v-5q1 -26 0 -49q0 -93 -13 -137q-59 0 -185 -3q-94 -2 -173 -2h-50q-97 1 -179 7q0 106 -5 309q-3 162 -3 298v66zM152 1274q27 10 83 11h9q48 0 67 -9q0 -14 -10 -148v-2 h-2l-141 2h-4q-2 11 -2 146zM406 1274q27 10 82 11h10q48 0 67 -9l-2 -31l-4 -68q-2 -36 -2 -49v-2h-4l-141 2h-4q-2 11 -2 146z" />
<glyph unicode="&#xec;" horiz-adv-x="415" d="M23 1253l96 105q31 -23 74 -66l94 -95l71 -73q-23 -6 -82 -9q-20 -1 -38 -1q-37 0 -68 4q-10 14 -40 41l-64 56q-35 30 -43 38zM109 0q8 97 8 257q0 114 -4 261q-4 126 -4 226q0 179 12 274v2q3 1 10.5 1t20.5 -1q25 -2 26 -2q71 -5 124 -5q18 0 34 1h35v-6 q0 -98 -5.5 -331t-5.5 -334t9 -331q-5 -14 -80 -14q-21 0 -47 1q-67 3 -101 3q-27 0 -32 -2z" />
<glyph unicode="&#xed;" horiz-adv-x="436" d="M61 0q8 97 9 257q0 114 -4 261q-4 126 -4 226q0 179 12 274v2q6 2 30.5 0t26.5 -2q71 -5 124 -5q18 0 34 1h35v-6q0 -98 -5.5 -331t-5.5 -334t9 -331q-5 -14 -80 -14q-21 0 -47 1q-67 3 -101 3q-28 0 -33 -2zM76 1120l71 73l95 95q43 43 73 66l97 -105q-8 -8 -43 -38 l-65 -56q-30 -27 -40 -41q-31 -4 -68 -4q-18 0 -38 1q-59 3 -82 9z" />
<glyph unicode="&#xee;" horiz-adv-x="460" d="M31 1122q41 55 202 203l205 -203q-2 2 -22.5 -2t-50.5 -6q-8 -1 -16 0q-25 0 -56 4q-4 0 -15 12l-26 27q-14 14 -23 21l-30 -31q-27 -27 -33 -29q-4 -1 -15 0q-31 -1 -120 4zM92 0q8 97 9 257q0 114 -5 261q-4 126 -3 226q0 179 11 274v2q3 1 11 1t20 -1q25 -2 27 -2 q71 -5 124 -5q18 0 33 1h35v-6q0 -98 -5 -331t-5 -334t8 -331q-5 -14 -80 -14q-21 0 -47 1q-67 3 -100 3q-28 0 -33 -2z" />
<glyph unicode="&#xef;" horiz-adv-x="479" d="M43 1274q27 10 83 11h10q48 0 67 -9q0 -14 -10 -148v-2h-3l-141 2h-4q-2 11 -2 146zM94 0q8 97 9 257q0 114 -5 261q-4 126 -3 226q0 179 11 274v2q6 2 31 0t27 -2q71 -5 124 -5q18 0 34 1h34v-6q0 -98 -5 -331t-5 -334t8 -331q-5 -14 -80 -14q-21 0 -47 1q-67 3 -100 3 q-28 0 -33 -2zM297 1274q27 10 83 11h10q48 0 67 -9l-2 -31l-4 -68q-2 -36 -2 -49v-2h-5l-141 2h-4q-2 11 -2 146z" />
<glyph unicode="&#xf1;" horiz-adv-x="751" d="M67 692q1 170 13 312q29 9 71 9q14 0 29 -1q61 -4 111 -19v-2q4 -16 32 -65l80 -139q53 -89 62 -101q4 17 4 57q0 35 -3 87.5t-3 93.5q0 48 4 82v4q47 10 126 10t99 -6l-2 -459q1 -52 2 -152q0 -50 -1 -111v-70q0 -131 3 -191l-2 -21q-6 -14 -45 -14t-91 4q-26 2 -44.5 2 t-30.5 -2q-86 188 -172 428q-11 -152 -11 -288q0 -69 3 -134h-2q-13 -7 -46 -7q-25 0 -63 4q-52 6 -83 6q-21 0 -33 -3l-2 2q1 38 0 85q0 95 -2 229q-3 161 -4 301q1 35 1 69zM109 1104q35 117 77 168q37 37 87 46q13 2 26 2q36 0 66 -20q16 -10 34.5 -34.5t30.5 -32.5 q15 -13 28 -13q15 0 30 16q28 30 42 69q35 4 107 4l4 -2v-2q2 -12 2 -25q0 -53 -29 -108q-35 -67 -100 -76q-11 -2 -22 -2q-29 0 -58 12q-39 16 -53 53q-23 33 -47 33q-47 0 -68 -33q0 -4 -4 -4q-8 -27 0 -53v-2q-14 4 -53 5t-70 1z" />
<glyph unicode="&#xf2;" horiz-adv-x="698" d="M55 692q4 164 76 246q14 14 33 27q83 42 186 41h27q119 -6 201 -68q39 -33 59 -88q16 -37 22 -88q4 -47 5 -141q-2 -45 -3.5 -143.5t-5.5 -151.5q0 -8 -2 -23.5t-2 -23.5q-4 -109 -55 -195q-45 -61 -147 -86q-60 -16 -124 -16q-19 0 -38 2q-150 12 -191 100 q-31 59 -35 158q-7 268 -7 383q0 45 1 67zM121 1253l96 105q31 -23 74 -66l94 -95l72 -73q-23 -6 -82 -9q-20 -1 -38 -1q-37 0 -69 4q-10 14 -40 41l-64 56q-35 30 -43 38zM209 449l6 -65q4 -44 8 -77t13 -61q27 -57 100 -63h13q64 0 104 44q12 16 18 28.5t7 21t1 34t2 45.5 q0 16 1 35t1 31v10v68l-2 98l-2 14q0 14 -2 35t-2 33q-6 88 -74 121q-20 7 -39 7q-37 0 -73 -26q-49 -41 -68 -100q-14 -72 -14 -167q0 -32 2 -66z" />
<glyph unicode="&#xf3;" horiz-adv-x="692" d="M43 692q4 164 76 246q14 14 33 27q83 42 185 41h28q119 -6 200 -68q39 -33 60 -88q16 -37 22 -88q4 -47 4 -141q-2 -45 -3 -143.5t-5 -151.5q0 -8 -2 -23.5t-2 -23.5q-4 -109 -55 -195q-45 -61 -148 -86q-60 -16 -123 -16q-19 0 -39 2q-150 12 -190 100q-31 59 -35 158 q-7 268 -7 383q0 45 1 67zM197 449l6 -65q4 -44 8 -77t12 -61q27 -57 101 -63h13q64 0 103 44q12 16 18.5 28.5t7.5 21t1 34t2 45.5q0 16 1 35t1 31v10v68l-2 98l-2 14q0 14 -2 35t-2 33q-6 88 -74 121q-20 7 -39 7q-37 0 -74 -26q-49 -41 -67 -100q-14 -72 -14 -167 q0 -32 2 -66zM207 1120l72 73l94 95q43 43 73 66l97 -105q-8 -8 -43 -38l-65 -56q-30 -27 -40 -41q-31 -4 -68 -4q-18 0 -38 1q-59 3 -82 9z" />
<glyph unicode="&#xf4;" horiz-adv-x="700" d="M51 692q4 164 76 246q14 14 33 27q83 42 186 41h27q119 -6 200 -68q39 -33 60 -88q16 -37 22 -88q4 -47 4 -141q-2 -45 -3 -143.5t-5 -151.5q0 -8 -2 -23.5t-2 -23.5q-4 -109 -55 -195q-45 -61 -148 -86q-60 -16 -123 -16q-19 0 -38 2q-150 12 -191 100q-31 59 -35 158 q-7 268 -7 383q0 45 1 67zM145 1122q41 55 203 203l205 -203q-2 2 -22.5 -2t-51.5 -6q-8 -1 -16 0q-25 0 -55 4q-4 0 -16 12l-25 27q-14 14 -23 21l-31 -31q-27 -27 -32 -29q-4 -1 -15 0q-32 -1 -121 4zM205 449l6 -65q4 -44 8 -77t12 -61q27 -57 101 -63h13q64 0 104 44 q12 16 18 28.5t7 21t1 34t2 45.5q0 16 1 35t1 31v10v68l-2 98l-2 14q0 14 -2 35t-2 33q-6 88 -74 121q-20 7 -39 7q-37 0 -73 -26q-49 -41 -68 -100q-14 -72 -14 -167q0 -32 2 -66z" />
<glyph unicode="&#xf5;" horiz-adv-x="716" d="M57 692q4 164 76 246q14 14 33 27q83 42 186 41h27q119 -6 201 -68q39 -33 59 -88q16 -37 22 -88q4 -47 5 -141q-2 -45 -3.5 -143.5t-5.5 -151.5q-2 -8 -2 -23.5t-2 -23.5q-4 -109 -55 -195q-45 -61 -147 -86q-60 -16 -124 -16q-19 0 -38 2q-150 12 -191 100 q-31 59 -35 158q-7 268 -7 383q0 45 1 67zM94 1104q35 117 78 168q37 37 87 46q13 2 25 2q36 0 66 -20q16 -10 34.5 -34.5t31.5 -32.5q15 -13 28 -13q15 0 30 16q28 30 42 69q35 4 107 4l4 -2v-2q2 -12 1 -25q0 -53 -28 -108q-35 -67 -100 -76q-11 -2 -22 -2q-29 0 -58 12 q-39 16 -53 53q-23 33 -48 33q-47 0 -67 -33q0 -4 -4 -4q-8 -27 0 -53v-2q-14 4 -53 5t-70 1zM211 449l6 -65q4 -44 8 -77t13 -61q27 -57 100 -63h14q64 0 103 44q12 16 18 28.5t7 21t1 34t2 45.5v35v31l2 10v68l-2 98v14q-2 14 -4 35t-2 33q-6 88 -74 121q-20 7 -39 7 q-37 0 -73 -26q-49 -41 -68 -100q-14 -72 -14 -167q0 -32 2 -66z" />
<glyph unicode="&#xf6;" horiz-adv-x="708" d="M55 692q4 164 76 246q14 14 33 27q83 42 186 41h27q119 -6 201 -68q39 -33 59 -88q16 -37 22 -88q4 -47 5 -141q-2 -45 -3.5 -143.5t-5.5 -151.5q0 -8 -2 -23.5t-2 -23.5q-4 -109 -55 -195q-45 -61 -147 -86q-60 -16 -124 -16q-19 0 -38 2q-150 12 -191 100 q-31 59 -35 158q-7 268 -7 383q0 45 1 67zM141 1274q27 10 83 11h10q48 0 67 -9q0 -14 -10 -148v-2h-2l-142 2h-4q-2 11 -2 146zM209 449l6 -65q4 -44 8 -77t13 -61q27 -57 100 -63h14q64 0 103 44q12 16 18 28.5t7 21t1 34t2 45.5q0 16 1 35t1 31v10v68l-2 98l-2 14 q0 14 -2 35t-2 33q-6 88 -74 121q-20 7 -39 7q-37 0 -73 -26q-49 -41 -68 -100q-14 -72 -14 -167q0 -32 2 -66zM395 1274q27 10 83 11h10q48 0 67 -9l-2 -31l-4 -68q-2 -36 -2 -49v-2h-4l-142 2h-4q-2 11 -2 146z" />
<glyph unicode="&#xf7;" horiz-adv-x="901" d="M18 350q0 213 5 238h858q0 -10 -3 -125q-1 -26 -1 -47q0 -69 8 -76h-2q-6 -1 -45 -1q-95 0 -385 4q-408 5 -435 7zM312 765v33q0 33 1 69q2 54 2 61q43 14 136 16h22q74 0 98 -12q0 -2 -3 -52.5t-6 -111.5t-3 -76v-2v-2h-4l-231 2h-7q-4 27 -5 75zM312 77v33q0 33 1 69 q2 54 2 61q43 14 136 16h22q74 0 98 -12q0 -2 -3 -52.5t-6 -112t-3 -75.5v-2v-2h-4l-231 2h-7q-4 27 -5 75z" />
<glyph unicode="&#xf8;" horiz-adv-x="733" d="M66 -53q-1 3 -2 7q0 26 38 122q2 0 2 2l-2 2v2q-42 172 -42 402q0 82 6 171q2 20 3 65.5t7 80.5t20 63q25 53 58 86l6 6q63 48 182 48q38 0 82 -5q2 2 4 17.5t8 15.5h2q13 -2 47 -2q25 0 63 1q15 1 28 1q59 0 59 -12q0 -16 -14.5 -50t-10.5 -52q66 -78 67 -239 q0 -33 -3 -69q0 -317 -23 -442q-18 -78 -75.5 -128t-135.5 -58q-27 -2 -82 -3.5t-79 -5.5h-3q0 -2 -18 -20l-2 -2h2q-16 -4 -50 -5q-17 -1 -36.5 -1t-41.5 1q-44 1 -64 1zM223 385l135 412v2h-2h-8q-31 -4 -59.5 -26.5t-40.5 -51.5q-6 -37 -10.5 -102.5t-6.5 -81.5 q-4 -25 -6 -35q-4 -64 -3 -93q-1 -20 1 -24zM350 168l2 -2q109 23 129 84q14 57 16 115v19q0 47 -4 92q-5 54 -6 73v4q-25 -61 -75 -206.5z" />
<glyph unicode="&#xf9;" horiz-adv-x="712" d="M49 217q0 109 4 368q3 173 3 291q0 59 -1 105h-2h2q53 2 94 2q80 0 107 -8v-2q-4 -112 -4 -223q0 -241 18 -480q19 -66 84 -65h7q71 4 85 71q6 127 8.5 369t4.5 326q6 0 60 5q45 4 79 4h12q37 -1 58 -13q7 -144 7 -280q0 -245 -24 -464q-12 -96 -73.5 -161.5 t-161.5 -73.5q-26 -3 -51 -3q-106 0 -197 49q-113 60 -119 183zM127 1253l96 105q31 -23 74 -66l94 -95l72 -73q-23 -6 -82 -9q-20 -1 -38 -1q-37 0 -69 4q-10 14 -40 41l-64 56q-35 30 -43 38z" />
<glyph unicode="&#xfa;" horiz-adv-x="714" d="M39 217q0 109 4 368q3 173 3 291q0 59 -1 105h-2h2q53 2 93 2q80 0 108 -8v-2q-4 -112 -4 -223q0 -241 18 -480q19 -66 84 -65h7q71 4 85 71q6 127 8 369t5 326q6 0 60 5q45 4 78 4h13q37 -1 57 -13q7 -144 8 -280q0 -245 -24 -464q-12 -96 -73.5 -161.5t-161.5 -73.5 q-26 -3 -52 -3q-106 0 -196 49q-113 60 -119 183zM240 1120l71 73l95 95q43 43 73 66l96 -105q-8 -8 -43 -38l-64 -56q-30 -27 -40 -41q-31 -4 -68 -4q-18 0 -38 1q-59 3 -82 9z" />
<glyph unicode="&#xfb;" horiz-adv-x="718" d="M45 217q0 109 4 368q3 173 3 291q0 59 -1 105h-2h2q53 2 93 2q80 0 108 -8v-2q-4 -112 -4 -223q0 -241 18 -480q19 -66 84 -65h7q71 4 85 71q6 127 8.5 369t4.5 326q6 0 60 5q45 4 78 4h13q37 -1 58 -13q7 -144 7 -280q0 -245 -24 -464q-12 -96 -73.5 -161.5 t-161.5 -73.5q-26 -3 -51 -3q-106 0 -197 49q-113 60 -119 183zM168 1122q41 55 203 203l204 -203q-2 2 -22.5 -2t-50.5 -6q-8 -1 -16 0q-25 0 -56 4q-4 0 -15 12l-26 27q-14 14 -22 21l-31 -31q-27 -27 -33 -29q-4 -1 -14 0q-32 -1 -121 4z" />
<glyph unicode="&#xfc;" horiz-adv-x="724" d="M49 217q0 109 4 368q3 173 3 291q0 59 -1 105h-2h2q53 2 94 2q80 0 107 -8v-2q-4 -112 -4 -223q0 -241 18 -480q19 -66 84 -65h7q71 4 85 71q6 127 8.5 369t4.5 326q6 0 60 5q45 4 79 4h12q37 -1 58 -13q7 -144 7 -280q0 -245 -24 -464q-12 -96 -73.5 -161.5 t-161.5 -73.5q-26 -3 -51 -3q-106 0 -197 49q-113 60 -119 183zM162 1274q27 10 83 11h10q48 0 67 -9q0 -14 -11 -148v-2h-2l-141 2h-4q-2 11 -2 146zM416 1274q27 10 83 11h10q48 0 66 -9l-2 -31l-4 -68q-2 -36 -2 -49v-2h-4l-141 2h-4q-2 11 -2 146z" />
<glyph unicode="&#xfd;" horiz-adv-x="659" d="M20 -2q35 109 187 494v2q-20 86 -90 249.5t-90 243.5q18 0 66 4t87 4t64 -10q35 -150 86 -248q35 63 112 244l2 2q41 6 109 8q23 1 40 1q35 0 52 -3v-2q-55 -178 -210.5 -503.5t-209.5 -483.5q-13 2 -37.5 2t-60.5 -2q-48 -3 -78 -3q-15 0 -26 1h-3zM270 1120l72 73 l94 95q43 43 74 66l96 -105q-8 -8 -43 -38l-64 -56q-30 -27 -40 -41q-31 -4 -69 -4q-18 0 -38 1q-59 3 -82 9z" />
<glyph unicode="&#xff;" horiz-adv-x="671" d="M35 -2q35 109 186 494v2q-20 86 -90 249.5t-90 243.5q18 0 66.5 4t87 4t63.5 -10q35 -150 86 -248q35 63 113 244l2 2q41 6 108 8q23 1 41 1q35 0 51 -3v-2q-55 -178 -210.5 -503.5t-208.5 -483.5q-13 2 -38 2t-61 -2q-48 -3 -78 -3q-15 0 -26 1h-2zM152 1274 q27 10 83 11h9q48 0 67 -9q0 -14 -10 -148v-2h-2l-141 2h-4q-2 11 -2 146zM406 1274q27 10 82 11h10q48 0 67 -9l-2 -31l-4 -68q-2 -36 -2 -49v-2h-4l-141 2h-4q-2 11 -2 146z" />
<glyph unicode="&#x152;" horiz-adv-x="1746" d="M81 469q-1 27 -1 57q0 110 9 258q11 188 13 248q2 117 59.5 214t153.5 149q49 29 104 36q29 4 66 3q32 0 69 -2q61 -5 95 -5h21q184 -3 350 -3h83q204 1 382 4q107 2 158 2h45q1 -53 1 -100q0 -118 -8 -202q-79 -16 -223 -15h-50q-32 1 -61 1q-136 0 -208 -12l-2 -2 q1 -6 0 -19q0 -32 -3 -103q-1 -22 -2 -39q0 -63 15 -75q37 -4 123 -4t127 -6v-2l2 -4q4 -41 4 -88t-2 -105.5t-2 -93.5v-2h-2q-29 4 -74 4q-23 0 -50 -1q-81 -3 -114 -3h-2q-14 -6 -15 -119v-10q0 -104 19 -139h4q78 -2 256 -4t269 -6v-5q2 -44 2 -82q0 -125 -21 -188h-2 q-51 -1 -200 -1h-175h-52q-254 0 -324 -9q-72 -2 -179.5 -11.5t-163.5 -11.5h-24q-53 0 -145 7q-217 23 -295 243q-27 119 -30 246zM348 844q3 -35 4 -89q0 -45 -3 -104q-2 -43 -2 -78q0 -70 7 -108q14 -129 82 -189q31 -26 67 -25q7 0 15 1q45 6 86 37q80 72 103 239 q21 230 21 358q0 21 -1 40q-4 57 -16 94q-8 21 -15 31q-25 49 -61 73q-43 31 -110 32h-4q-63 0 -101 -28q-53 -39 -68 -137q-4 -55 -4 -147z" />
<glyph unicode="&#x153;" horiz-adv-x="1255" d="M74 327q0 18 -1 37q0 78 7 183q8 131 8 174q2 82 42 150.5t108 103.5q35 20 73 24q19 2 42.5 2t50.5 -2q36 -3 61 -2h20q129 -3 246 -3h57q141 1 267.5 3t142.5 2q1 -42 1 -79q0 -75 -5 -132q-60 -11 -173 -11h-19h-27q-106 0 -162 -7v-2q1 -6 1 -18q0 -23 -3 -68 q-1 -17 -1 -30q0 -40 9 -50q25 -2 85.5 -2t90.5 -4v-4v-201v-2q-22 3 -53 3q-16 0 -34 -1q-54 -2 -81 -2q-11 -7 -11 -94q0 -69 13 -94h5q53 -2 178 -2t188 -4v-5q1 -25 1 -47q0 -99 -15 -141q-28 -1 -93.5 -1t-168.5 1h-77q-142 0 -188 -6q-49 -2 -125.5 -8t-113.5 -8 q-9 -1 -21 -1q-36 0 -98 5q-154 16 -207 170q-18 84 -20 173zM260 588q2 -26 2 -66q0 -30 -1 -68q-1 -30 -1 -54q0 -49 4 -76q10 -88 58 -134q22 -19 48 -19q32 0 70 30q57 49 72 168q15 167 15 255q0 11 -1 21q-4 45 -12 68q-4 10 -10 20q-16 37 -43 51q-29 20 -76 22h-5 q-44 0 -69 -18q-41 -29 -47 -96q-4 -38 -4 -104z" />
<glyph unicode="&#x178;" horiz-adv-x="942" d="M35 -4q45 141 266 704v5q-29 123 -128 357t-128 347q25 0 94 6q60 5 109 5h16q55 -1 92 -15q51 -215 121 -354q59 109 162 350q2 2 4 2q117 16 196 16q55 0 91 -8v-2q-80 -254 -302.5 -719t-297.5 -692q-18 2 -53.5 2t-87.5 -2q-69 -3 -112 -3q-22 0 -38 1h-4zM191 1621 v29q0 29 2 60q2 47 2 51q37 14 115 16h11q70 0 97 -14q0 -2 -3 -45l-6.5 -95t-3.5 -67v-2v-2h-4l-198 2h-6q-5 25 -6 67zM548 1621q0 14 -1 29q0 29 2 60q2 47 2 51q37 14 116 16h10q70 0 97 -14q0 -2 -3 -45t-6 -95t-3 -67v-2v-2h-4l-199 2h-6q-4 25 -5 67z" />
<glyph unicode="&#x2c6;" horiz-adv-x="710" d="M23 1081q33 43 77.5 92.5t75.5 77.5l93 85q62 56 85 79l334 -332q-2 2 -34.5 -3t-83.5 -10q-19 -2 -41 -2q-35 0 -76 5q-10 0 -51.5 47t-53.5 54q-8 -6 -52 -51.5t-54 -49.5h-14q-46 -1 -205 8z" />
<glyph unicode="&#x2dc;" horiz-adv-x="940" d="M45 1024q57 190 123 264q55 57 134 71q18 3 35 3q59 0 109 -35q23 -14 52.5 -49t48.5 -47q24 -24 47 -24t46 24q46 47 62 104q10 0 168 6q4 0 5 -4q6 -25 6 -51q0 -96 -84 -203q-37 -47 -78 -61q-39 -15 -78 -15q-34 0 -68 11q-74 25 -104 92q-37 47 -80 47h-4 q-27 0 -66 -20q-25 -16 -34 -39q-6 -12 -6 -31.5t6 -46.5q-23 6 -83 7h-39q-37 0 -69 -1z" />
<glyph unicode="&#x2013;" horiz-adv-x="1259" d="M63 401q0 272 7 328h1118q0 -37 -2 -107.5t-1 -128t9 -106.5h-2q-31 -2 -560.5 5t-568.5 9z" />
<glyph unicode="&#x2014;" horiz-adv-x="1515" d="M63 401q0 272 7 328h1118h256q0 -37 -2 -107.5t-1 -128t9 -106.5h-2q-31 -2 -689.5 5t-695.5 9z" />
<glyph unicode="&#x2018;" horiz-adv-x="421" d="M33 946l131 504q-2 0 44 0t104.5 1t82.5 1v-2q-106 -406 -137 -496q0 -2 -2 -4h-2q-121 -12 -175 -12q-45 0 -46 8z" />
<glyph unicode="&#x2019;" horiz-adv-x="421" d="M33 946l131 504q-2 0 44 0t104.5 1t82.5 1v-2q-106 -406 -137 -496q0 -2 -2 -4h-2q-121 -12 -175 -12q-45 0 -46 8z" />
<glyph unicode="&#x201a;" horiz-adv-x="421" d="M33 -193l131 504q-2 0 44 0t104.5 1t82.5 1v-2q-106 -406 -137 -495q0 -2 -2 -4h-2q-121 -12 -175 -13q-45 0 -46 8z" />
<glyph unicode="&#x201c;" horiz-adv-x="778" d="M43 936v2q106 406 137 496q0 2 2 4h2q121 12 176 12q45 0 46 -8l-132 -504q2 0 -44 0t-104 -1t-83 -1zM371 936v2q106 406 137 496q0 2 2 4h2q121 12 175 12q45 0 46 -8l-131 -504q2 0 -44 0t-104 -1t-83 -1z" />
<glyph unicode="&#x201d;" horiz-adv-x="778" d="M45 946l131 504q-2 0 44 0t104.5 1t83.5 1v-2q-106 -406 -138 -496q0 -2 -2 -4h-2q-121 -12 -175 -12q-45 0 -46 8zM373 946l131 504q-2 0 44 0t104.5 1t82.5 1v-2q-106 -406 -137 -496q0 -2 -2 -4h-2q-121 -12 -175 -12q-45 0 -46 8z" />
<glyph unicode="&#x201e;" horiz-adv-x="778" d="M43 -201q106 406 137 496q0 2 2 4h2q121 12 176 12q45 0 46 -8l-132 -504q2 0 -44 0t-104 -1t-83 -1v2zM371 -201q106 406 137 496q0 2 2 4h2q121 12 175 12q45 0 46 -8l-131 -504q2 0 -44 0t-104.5 -1t-82.5 -1v2z" />
<glyph unicode="&#x2022;" horiz-adv-x="499" d="M59 571q0 63 9 107q4 14 6 16q10 23 24.5 33t28.5 16q10 4 31 9q2 0 8 1t10 1h96q55 0 72 -6q90 -27 96 -95q1 -9 1 -27q0 -46 -7 -153q-14 -70 -63 -90q-23 -10 -74 -14l-117 -7h-2q-6 -1 -11 0q-49 0 -87 50q-10 16 -14 37q-7 49 -7 98v24z" />
<glyph unicode="&#x2026;" horiz-adv-x="1069" d="M69 77q0 16 -1 33q0 33 2 69q2 54 2 61q43 14 135 16h22q74 0 99 -12q0 -2 -3 -52.5l-6.5 -112t-3.5 -75.5v-2v-2h-4l-231 2h-6q-4 27 -5 75zM407 78q0 16 -1 32q0 33 2 69q2 54 2 61q43 14 135 16h22q74 0 99 -12q0 -2 -3.5 -52.5t-6.5 -112t-3 -75.5v-2v-2h-4l-231 2 h-6q-4 29 -5 76zM746 77v33q0 33 2 69q2 54 2 61q43 14 135 16h22q74 0 99 -12q0 -2 -3.5 -52.5t-6.5 -112t-3 -75.5v-2v-2h-4l-231 2h-6q-5 27 -6 75z" />
<glyph unicode="&#x2039;" horiz-adv-x="727" d="M8 553q47 57 111 125l149 156l125 127l117 120q23 -14 76 -69.5t80 -71.5q-39 -51 -173.5 -189.5t-187.5 -203.5q57 -49 183 -174t196 -183l-22 -20l-33 -33q-43 -43 -105 -98l-2 2q-29 29 -225.5 209t-288.5 303z" />
<glyph unicode="&#x203a;" horiz-adv-x="729" d="M45 190q70 57 196 182.5t183 174.5q-53 66 -187.5 204t-173.5 189q27 16 80.5 71.5t75.5 69.5l117 -120l125 -127l149 -156q63 -68 111 -125q-92 -123 -288.5 -303t-225.5 -209l-2 -2l-105 98l-32 33z" />
<glyph unicode="&#x20ac;" horiz-adv-x="1015" d="M65 660q3 144 3 305q10 184 86 303q45 63 114.5 104t147.5 55.5t168 20.5q60 4 118 4q29 0 57 -1q36 -1 73 -1q49 0 98 2h2v-2q10 -93 10 -177q0 -65 -6 -124q0 -4 -2 -6q-8 0 -60.5 4t-69 5t-63.5 1t-67 -4l-59 -11q-38 -7 -58 -20.5t-45 -33t-41 -46.5h8q141 0 174 -10 v-2q6 -47 6 -97.5t-6 -105.5v-2q-33 -8 -83 -11q-38 -2 -70 -2h-21h-28q-28 0 -58 -1h-2q0 -31 6 -68q193 0 256 -4q11 -44 11 -98q0 -48 -9 -105q-47 -8 -129 -9t-108 -3q12 -63 52 -101t101.5 -52.5t121 -18.5t135 -6t120.5 -10v-2q-1 -8 0 -22q0 -41 4 -134q2 -37 2 -67 q0 -69 -10 -93q-92 -15 -277 -14q-74 0 -163 2l-37 4q-96 16 -193 72q-45 27 -75 65q-72 86 -105 230q-30 131 -30 263q1 12 1 24z" />
<glyph unicode="&#x2122;" horiz-adv-x="1107" d="M49 1325q346 0 451 -10q1 -32 1 -61q0 -58 -5 -105q-14 3 -47 3t-84 -3h-3l-2 -2v-25q0 -93 7 -538v-2q-27 -4 -88.5 -4t-88.5 -5q0 2 1.5 58.5t1.5 196t-9 313.5l-2 2q-20 10 -71.5 10t-55.5 2q-7 14 -7 71q0 39 3 97q-2 0 -2 2zM594 1307q2 5 52 5h18q68 -1 75 -1h2 q14 -16 33 -51t27 -48q2 -2 6 -2q14 16 37.5 52t36.5 51q18 0 74 3q34 2 57 2q15 0 26 -1q-1 -32 -1 -82t1 -119q1 -46 1 -83q0 -75 -3 -118l-2 -340h-141q-2 31 -4 169.5t-10 207.5q-10 -12 -30 -38.5l-28 -36.5q-8 4 -30.5 37.5t-45.5 29.5q-2 -106 -1 -186q0 -119 4 -178 q-23 -4 -150 -5q-2 2 -2 5q-4 12 -4 271q0 173 2 456z" />
<glyph unicode="&#xe000;" horiz-adv-x="1004" d="M0 1005h1005v-1005h-1005v1005z" />
<glyph unicode="&#xfb01;" horiz-adv-x="1124" d="M68 2q0 162 1 449.5t1 521.5v2q102 18 297 23q31 1 61 1q157 0 283 -22v-211q-47 -4 -182.5 -10t-200.5 -13q-14 -36 -15 -66q0 -35 19 -63q0 -2 2 -2q22 -3 66.5 -3t113.5 3q6 -12 5 -58l-2 -92v-30q0 -29 1 -55q0 -2 -4 -2q-29 -4 -91.5 -10.5t-90.5 -12.5h-2 q-8 -84 -13 -350q-59 -4 -145 -5h-23q-65 0 -79 5h-2zM799 0q8 97 8 257q0 114 -4 261q-4 126 -4 226q0 179 12 274v2q3 1 10.5 1t20.5 -1q25 -2 26 -2q71 -5 124 -5q18 0 34 1h35v-6q0 -98 -5 -331t-5 -334t8 -331q-5 -14 -80 -14q-21 0 -47 1q-67 3 -101 3q-27 0 -32 -2z " />
<glyph unicode="&#xfb02;" horiz-adv-x="1419" d="M68 2q0 162 1 449.5t1 521.5v2q102 18 297 23q31 1 61 1q157 0 283 -22v-211q-47 -4 -182.5 -10t-200.5 -13q-14 -36 -15 -66q0 -35 19 -63q0 -2 2 -2q22 -3 66.5 -3t113.5 3q6 -12 5 -58l-2 -92v-30q0 -29 1 -55q0 -2 -4 -2q-29 -4 -91.5 -10.5t-90.5 -12.5h-2 q-8 -84 -13 -350q-59 -4 -145 -5h-23q-65 0 -79 5h-2zM795 -2v25q8 154 10 285q1 88 1 152v58l-3 233q-2 155 -4 255q27 14 108.5 14t120.5 -19q-2 -66 -2 -164.5t2 -230.5q3 -176 3 -286q0 -55 -1 -93v-2q6 1 29 2q45 0 154.5 -5.5t156.5 -5.5q23 0 31 1l-2 -88 q2 -44 2 -71q0 -34 -3 -44q-5 -16 -38 -16q-12 2 -62.5 0t-160.5 -3h-49q-108 0 -293 3z" />
<glyph unicode="&#xfb03;" horiz-adv-x="1851" d="M68 2q0 162 1 449.5t1 521.5v2q102 18 297 23q31 1 61 1q157 0 283 -22v-211q-47 -4 -182.5 -10t-200.5 -13q-14 -36 -15 -66q0 -35 19 -63q0 -2 2 -2q22 -3 66.5 -3t113.5 3q6 -12 5 -58l-2 -92v-30q0 -29 1 -55q0 -2 -4 -2q-29 -4 -91.5 -10.5t-90.5 -12.5h-2 q-8 -84 -13 -350q-59 -4 -145 -5h-23q-65 0 -79 5h-2zM795 2q0 162 1 449.5t1 521.5v2q102 18 297 23q31 1 61 1q157 0 283 -22v-211q-47 -4 -182.5 -10t-200.5 -13q-14 -36 -15 -66q0 -35 19 -63q0 -2 2 -2q22 -3 66.5 -3t113.5 3q6 -12 5 -58l-2 -92v-30q0 -29 1 -55 q0 -2 -4 -2q-29 -4 -91.5 -10.5t-90.5 -12.5h-2q-8 -84 -13 -350q-59 -4 -145 -5h-23q-65 0 -79 5h-2zM1526 0q8 97 8 257q0 114 -4 261q-4 126 -4 226q0 179 12 274v2q3 1 10.5 1t20.5 -1q25 -2 26 -2q71 -5 124 -5q18 0 34 1h35v-6q0 -98 -5 -331t-5 -334t8 -331 q-5 -14 -80 -14q-21 0 -47 1q-67 3 -101 3q-27 0 -32 -2z" />
<glyph unicode="&#xfb04;" horiz-adv-x="2146" d="M68 2q0 162 1 449.5t1 521.5v2q102 18 297 23q31 1 61 1q157 0 283 -22v-211q-47 -4 -182.5 -10t-200.5 -13q-14 -36 -15 -66q0 -35 19 -63q0 -2 2 -2q22 -3 66.5 -3t113.5 3q6 -12 5 -58l-2 -92v-30q0 -29 1 -55q0 -2 -4 -2q-29 -4 -91.5 -10.5t-90.5 -12.5h-2 q-8 -84 -13 -350q-59 -4 -145 -5h-23q-65 0 -79 5h-2zM795 2q0 162 1 449.5t1 521.5v2q102 18 297 23q31 1 61 1q157 0 283 -22v-211q-47 -4 -182.5 -10t-200.5 -13q-14 -36 -15 -66q0 -35 19 -63q0 -2 2 -2q22 -3 66.5 -3t113.5 3q6 -12 5 -58l-2 -92v-30q0 -29 1 -55 q0 -2 -4 -2q-29 -4 -91.5 -10.5t-90.5 -12.5h-2q-8 -84 -13 -350q-59 -4 -145 -5h-23q-65 0 -79 5h-2zM1522 -2v25q8 154 10 285q1 88 1 152v58l-3 233q-2 155 -4 255q27 14 108.5 14t120.5 -19q-2 -66 -2 -164.5t2 -230.5q3 -176 3 -286q0 -55 -1 -93v-2q6 1 29 2 q45 0 154.5 -5.5t156.5 -5.5q23 0 31 1l-2 -88q2 -44 2 -71q0 -34 -3 -44q-5 -16 -38 -16q-12 2 -62.5 0t-160.5 -3h-49q-108 0 -293 3z" />
</font>
</defs>
</svg>
